<svg width="151" height="30" viewBox="0 0 151 30" fill="none" xmlns="http://www.w3.org/2000/svg">
<path d="M0.6 29.6C0.2 29.6 0 29.4533 0 29.16C0 28.92 0.173333 28.76 0.52 28.68L1.44 28.52C2 28.4133 2.36 28.2667 2.52 28.08C2.70667 27.8933 2.8 27.52 2.8 26.96V3.44C2.8 2.88 2.70667 2.50667 2.52 2.32C2.36 2.13333 2 1.98667 1.44 1.88L0.52 1.72C0.173333 1.64 0 1.48 0 1.24C0 0.946666 0.2 0.799999 0.6 0.799999H7.84C8.24 0.799999 8.44 0.946666 8.44 1.24C8.44 1.48 8.26667 1.64 7.92 1.72L7 1.88C6.44 1.98667 6.06667 2.13333 5.88 2.32C5.72 2.50667 5.64 2.88 5.64 3.44V26.96C5.64 27.52 5.72 27.8933 5.88 28.08C6.06667 28.2667 6.44 28.4133 7 28.52L7.92 28.68C8.26667 28.76 8.44 28.92 8.44 29.16C8.44 29.4533 8.24 29.6 7.84 29.6H0.6Z" fill="#161616"/>
<path d="M13.9722 29.96C13.3589 29.96 12.7055 29.88 12.0122 29.72C11.3189 29.5867 10.7589 29.4133 10.3322 29.2C10.0922 29.0667 9.97219 28.84 9.97219 28.52L9.85219 24.04C9.85219 23.5867 10.0255 23.36 10.3722 23.36C10.6655 23.36 10.8655 23.5733 10.9722 24C11.4255 25.8933 11.9722 27.1867 12.6122 27.88C13.2789 28.5733 14.0789 28.92 15.0122 28.92C15.7855 28.92 16.4255 28.6267 16.9322 28.04C17.4389 27.4267 17.6922 26.5867 17.6922 25.52C17.6922 24.4533 17.3989 23.5067 16.8122 22.68C16.2255 21.8533 15.2389 20.9467 13.8522 19.96C12.4655 19.0267 11.4522 18.0933 10.8122 17.16C10.1722 16.2 9.85219 15.16 9.85219 14.04C9.85219 12.52 10.3855 11.2933 11.4522 10.36C12.5189 9.42667 13.9322 8.96 15.6922 8.96C16.2255 8.96 16.7455 9.02667 17.2522 9.16C17.7589 9.26667 18.2122 9.45333 18.6122 9.72C18.8522 9.88 18.9722 10.0933 18.9722 10.36L19.0522 14.76C19.0522 15.16 18.8922 15.36 18.5722 15.36C18.3855 15.36 18.2522 15.3067 18.1722 15.2C18.0922 15.0667 18.0255 14.9067 17.9722 14.72C17.4389 12.9867 16.9055 11.7867 16.3722 11.12C15.8389 10.4267 15.1855 10.08 14.4122 10.08C13.7189 10.08 13.1455 10.32 12.6922 10.8C12.2389 11.28 12.0122 11.88 12.0122 12.6C12.0122 13.5333 12.2922 14.3467 12.8522 15.04C13.4122 15.7333 14.4255 16.5867 15.8922 17.6C17.2255 18.56 18.2255 19.6 18.8922 20.72C19.5855 21.8133 19.9322 23.0133 19.9322 24.32C19.9322 26.0267 19.3855 27.4 18.2922 28.44C17.1989 29.4533 15.7589 29.96 13.9722 29.96Z" fill="#161616"/>
<path d="M25.8369 29.96C24.7169 29.96 23.7969 29.6133 23.0769 28.92C22.3569 28.2 21.9969 27.2533 21.9969 26.08C21.9969 24.9333 22.3569 23.8533 23.0769 22.84C23.7969 21.8 24.7835 20.8667 26.0369 20.04C27.2902 19.2133 28.7169 18.5467 30.3169 18.04C30.6635 17.9333 30.8369 17.7067 30.8369 17.36V13.72C30.8369 12.44 30.6369 11.5333 30.2369 11C29.8369 10.44 29.2902 10.16 28.5969 10.16C27.9302 10.16 27.3169 10.4667 26.7569 11.08C26.2235 11.6667 25.8369 12.6667 25.5969 14.08C25.4635 14.9333 25.1702 15.56 24.7169 15.96C24.2902 16.3333 23.8502 16.52 23.3969 16.52C22.6502 16.52 22.2769 16.1467 22.2769 15.4C22.2769 14.6267 22.4902 13.8667 22.9169 13.12C23.3702 12.3467 23.9569 11.6533 24.6769 11.04C25.3969 10.4 26.1835 9.89333 27.0369 9.52C27.8902 9.14667 28.7435 8.96 29.5969 8.96C32.2369 8.96 33.5569 10.4933 33.5569 13.56V25.8C33.5569 26.92 33.8369 27.48 34.3969 27.48C34.7435 27.48 35.0635 27.2533 35.3569 26.8C35.6502 26.32 35.7969 25.52 35.7969 24.4C35.7969 23.9733 35.9702 23.76 36.3169 23.76C36.6369 23.76 36.7969 23.9867 36.7969 24.44C36.7969 26.3867 36.4502 27.8 35.7569 28.68C35.0902 29.5333 34.3302 29.96 33.4769 29.96C32.8369 29.96 32.3302 29.7067 31.9569 29.2C31.5835 28.6667 31.3302 28.04 31.1969 27.32C31.1702 27.0533 31.0502 26.92 30.8369 26.92C30.6502 26.8933 30.4635 27.0133 30.2769 27.28C29.6369 28.16 28.9835 28.8267 28.3169 29.28C27.6502 29.7333 26.8235 29.96 25.8369 29.96ZM26.9169 28.12C27.6102 28.12 28.2502 27.88 28.8369 27.4C29.4235 26.8933 29.9035 26.2267 30.2769 25.4C30.6502 24.5733 30.8369 23.64 30.8369 22.6V19.68C30.8369 19.1733 30.5569 19.0267 29.9969 19.24C28.3702 19.8267 27.1035 20.64 26.1969 21.68C25.3169 22.6933 24.8769 23.92 24.8769 25.36C24.8769 27.2 25.5569 28.12 26.9169 28.12Z" fill="#161616"/>
<path d="M38.0934 29.6C37.7734 29.6 37.6134 29.4533 37.6134 29.16C37.6134 28.8933 37.7601 28.7333 38.0534 28.68L38.6134 28.6C39.1734 28.52 39.5334 28.36 39.6934 28.12C39.8801 27.88 39.9734 27.48 39.9734 26.92V4C39.9734 3.52 39.8934 3.2 39.7334 3.04C39.6001 2.85333 39.3468 2.73333 38.9734 2.68L38.1334 2.56C37.8401 2.50667 37.6934 2.34667 37.6934 2.08C37.6934 1.81333 37.8401 1.65333 38.1334 1.6C38.8801 1.44 39.5068 1.25333 40.0134 1.04C40.5201 0.826665 40.9468 0.613332 41.2934 0.4C41.7201 0.133333 42.0401 0 42.2534 0C42.5468 0 42.6934 0.213333 42.6934 0.639999V11.24C42.6934 11.48 42.7734 11.6267 42.9334 11.68C43.0934 11.7067 43.2934 11.6133 43.5334 11.4C44.5468 10.4667 45.4401 9.82667 46.2134 9.48C46.9868 9.13333 47.8001 8.96 48.6534 8.96C49.9068 8.96 50.8934 9.38667 51.6134 10.24C52.3334 11.0667 52.6934 12.2933 52.6934 13.92V26.92C52.6934 27.48 52.7734 27.88 52.9334 28.12C53.1201 28.3333 53.4934 28.48 54.0534 28.56L54.9334 28.68C55.2268 28.7333 55.3734 28.8933 55.3734 29.16C55.3734 29.4533 55.2134 29.6 54.8934 29.6H48.1734C47.8001 29.6 47.6134 29.4533 47.6134 29.16C47.6134 28.8933 47.7601 28.7333 48.0534 28.68L48.6134 28.6C49.1734 28.52 49.5334 28.36 49.6934 28.12C49.8801 27.88 49.9734 27.48 49.9734 26.92V14.36C49.9734 13.0533 49.7334 12.1333 49.2534 11.6C48.7734 11.0667 48.0934 10.8 47.2134 10.8C46.3601 10.8 45.5868 11.0533 44.8934 11.56C44.2268 12.04 43.6934 12.6933 43.2934 13.52C42.8934 14.32 42.6934 15.2133 42.6934 16.2V26.92C42.6934 27.48 42.7734 27.88 42.9334 28.12C43.1201 28.36 43.4934 28.5067 44.0534 28.56L45.1334 28.68C45.4268 28.7333 45.5734 28.8933 45.5734 29.16C45.5734 29.4533 45.4134 29.6 45.0934 29.6H38.0934Z" fill="#161616"/>
<path d="M63.9594 29.6C63.5594 29.6 63.3594 29.4533 63.3594 29.16C63.3594 28.92 63.5327 28.76 63.8794 28.68L64.7994 28.52C65.3594 28.4133 65.7194 28.2667 65.8794 28.08C66.066 27.8933 66.1594 27.52 66.1594 26.96V3.44C66.1594 2.88 66.066 2.50667 65.8794 2.32C65.7194 2.13333 65.3594 1.98667 64.7994 1.88L63.8794 1.72C63.5327 1.64 63.3594 1.48 63.3594 1.24C63.3594 0.946666 63.5594 0.799999 63.9594 0.799999H72.0794C73.4127 0.799999 74.5994 1.08 75.6394 1.64C76.6794 2.2 77.4927 2.96 78.0794 3.92C78.6927 4.88 78.9994 5.97333 78.9994 7.2C78.9994 8.4 78.6394 9.52 77.9194 10.56C77.226 11.5733 76.2127 12.4267 74.8794 13.12C74.7194 13.2 74.6394 13.3067 74.6394 13.44C74.6394 13.5733 74.7327 13.6667 74.9194 13.72C76.7327 14.3333 78.1327 15.32 79.1194 16.68C80.106 18.0133 80.5994 19.6 80.5994 21.44C80.5994 23.0133 80.2394 24.4267 79.5194 25.68C78.7994 26.9067 77.7994 27.8667 76.5194 28.56C75.266 29.2533 73.8394 29.6 72.2394 29.6H63.9594ZM71.1194 13.16C72.5327 13.16 73.706 12.6133 74.6394 11.52C75.5994 10.4 76.0794 9.01333 76.0794 7.36C76.0794 5.70667 75.626 4.37333 74.7194 3.36C73.8127 2.32 72.6127 1.8 71.1194 1.8C69.706 1.8 68.9994 2.33333 68.9994 3.4V10.96C68.9994 11.7333 69.1594 12.2933 69.4794 12.64C69.826 12.9867 70.3727 13.16 71.1194 13.16ZM71.7194 28.6C73.4527 28.6 74.866 27.9467 75.9594 26.64C77.0527 25.3067 77.5994 23.5333 77.5994 21.32C77.5994 19.1067 77.0394 17.36 75.9194 16.08C74.826 14.8 73.346 14.16 71.4794 14.16C69.826 14.16 68.9994 14.8133 68.9994 16.12V25.84C68.9994 27.68 69.906 28.6 71.7194 28.6Z" fill="#161616"/>
<path d="M86.5009 29.96C85.3809 29.96 84.4609 29.6133 83.7409 28.92C83.0209 28.2 82.6609 27.2533 82.6609 26.08C82.6609 24.9333 83.0209 23.8533 83.7409 22.84C84.4609 21.8 85.4476 20.8667 86.7009 20.04C87.9543 19.2133 89.3809 18.5467 90.9809 18.04C91.3276 17.9333 91.5009 17.7067 91.5009 17.36V13.72C91.5009 12.44 91.3009 11.5333 90.9009 11C90.5009 10.44 89.9543 10.16 89.2609 10.16C88.5943 10.16 87.9809 10.4667 87.4209 11.08C86.8876 11.6667 86.5009 12.6667 86.2609 14.08C86.1276 14.9333 85.8343 15.56 85.3809 15.96C84.9543 16.3333 84.5143 16.52 84.0609 16.52C83.3143 16.52 82.9409 16.1467 82.9409 15.4C82.9409 14.6267 83.1543 13.8667 83.5809 13.12C84.0343 12.3467 84.6209 11.6533 85.3409 11.04C86.0609 10.4 86.8476 9.89333 87.7009 9.52C88.5543 9.14667 89.4076 8.96 90.2609 8.96C92.9009 8.96 94.2209 10.4933 94.2209 13.56V25.8C94.2209 26.92 94.5009 27.48 95.0609 27.48C95.4076 27.48 95.7276 27.2533 96.0209 26.8C96.3143 26.32 96.4609 25.52 96.4609 24.4C96.4609 23.9733 96.6343 23.76 96.9809 23.76C97.3009 23.76 97.4609 23.9867 97.4609 24.44C97.4609 26.3867 97.1143 27.8 96.4209 28.68C95.7543 29.5333 94.9943 29.96 94.1409 29.96C93.5009 29.96 92.9943 29.7067 92.6209 29.2C92.2476 28.6667 91.9943 28.04 91.8609 27.32C91.8343 27.0533 91.7143 26.92 91.5009 26.92C91.3143 26.8933 91.1276 27.0133 90.9409 27.28C90.3009 28.16 89.6476 28.8267 88.9809 29.28C88.3143 29.7333 87.4876 29.96 86.5009 29.96ZM87.5809 28.12C88.2743 28.12 88.9143 27.88 89.5009 27.4C90.0876 26.8933 90.5676 26.2267 90.9409 25.4C91.3143 24.5733 91.5009 23.64 91.5009 22.6V19.68C91.5009 19.1733 91.2209 19.0267 90.6609 19.24C89.0343 19.8267 87.7676 20.64 86.8609 21.68C85.9809 22.6933 85.5409 23.92 85.5409 25.36C85.5409 27.2 86.2209 28.12 87.5809 28.12Z" fill="#161616"/>
<path d="M102.918 29.96C102.304 29.96 101.651 29.88 100.957 29.72C100.264 29.5867 99.7042 29.4133 99.2775 29.2C99.0375 29.0667 98.9175 28.84 98.9175 28.52L98.7975 24.04C98.7975 23.5867 98.9708 23.36 99.3175 23.36C99.6108 23.36 99.8108 23.5733 99.9175 24C100.371 25.8933 100.918 27.1867 101.558 27.88C102.224 28.5733 103.024 28.92 103.957 28.92C104.731 28.92 105.371 28.6267 105.878 28.04C106.384 27.4267 106.637 26.5867 106.637 25.52C106.637 24.4533 106.344 23.5067 105.757 22.68C105.171 21.8533 104.184 20.9467 102.798 19.96C101.411 19.0267 100.397 18.0933 99.7575 17.16C99.1175 16.2 98.7975 15.16 98.7975 14.04C98.7975 12.52 99.3308 11.2933 100.397 10.36C101.464 9.42667 102.877 8.96 104.637 8.96C105.171 8.96 105.691 9.02667 106.198 9.16C106.704 9.26667 107.158 9.45333 107.558 9.72C107.798 9.88 107.918 10.0933 107.918 10.36L107.997 14.76C107.997 15.16 107.838 15.36 107.518 15.36C107.331 15.36 107.198 15.3067 107.118 15.2C107.037 15.0667 106.971 14.9067 106.918 14.72C106.384 12.9867 105.851 11.7867 105.317 11.12C104.784 10.4267 104.131 10.08 103.357 10.08C102.664 10.08 102.091 10.32 101.637 10.8C101.184 11.28 100.957 11.88 100.957 12.6C100.957 13.5333 101.238 14.3467 101.798 15.04C102.357 15.7333 103.371 16.5867 104.838 17.6C106.171 18.56 107.171 19.6 107.838 20.72C108.531 21.8133 108.878 23.0133 108.878 24.32C108.878 26.0267 108.331 27.4 107.238 28.44C106.144 29.4533 104.704 29.96 102.918 29.96Z" fill="#161616"/>
<path d="M111.062 29.6C110.742 29.6 110.582 29.4533 110.582 29.16C110.582 28.8933 110.729 28.7333 111.022 28.68L111.582 28.6C112.142 28.52 112.502 28.36 112.662 28.12C112.849 27.88 112.942 27.48 112.942 26.92V4C112.942 3.52 112.862 3.2 112.702 3.04C112.569 2.85333 112.316 2.73333 111.942 2.68L111.102 2.56C110.809 2.50667 110.662 2.34667 110.662 2.08C110.662 1.81333 110.809 1.65333 111.102 1.6C111.849 1.44 112.476 1.25333 112.982 1.04C113.489 0.826665 113.916 0.613332 114.262 0.4C114.689 0.133333 115.009 0 115.222 0C115.516 0 115.662 0.213333 115.662 0.639999V11.24C115.662 11.48 115.742 11.6267 115.902 11.68C116.062 11.7067 116.262 11.6133 116.502 11.4C117.516 10.4667 118.409 9.82667 119.182 9.48C119.956 9.13333 120.769 8.96 121.622 8.96C122.876 8.96 123.862 9.38667 124.582 10.24C125.302 11.0667 125.662 12.2933 125.662 13.92V26.92C125.662 27.48 125.742 27.88 125.902 28.12C126.089 28.3333 126.462 28.48 127.022 28.56L127.902 28.68C128.196 28.7333 128.342 28.8933 128.342 29.16C128.342 29.4533 128.182 29.6 127.862 29.6H121.142C120.769 29.6 120.582 29.4533 120.582 29.16C120.582 28.8933 120.729 28.7333 121.022 28.68L121.582 28.6C122.142 28.52 122.502 28.36 122.662 28.12C122.849 27.88 122.942 27.48 122.942 26.92V14.36C122.942 13.0533 122.702 12.1333 122.222 11.6C121.742 11.0667 121.062 10.8 120.182 10.8C119.329 10.8 118.556 11.0533 117.862 11.56C117.196 12.04 116.662 12.6933 116.262 13.52C115.862 14.32 115.662 15.2133 115.662 16.2V26.92C115.662 27.48 115.742 27.88 115.902 28.12C116.089 28.36 116.462 28.5067 117.022 28.56L118.102 28.68C118.396 28.7333 118.542 28.8933 118.542 29.16C118.542 29.4533 118.382 29.6 118.062 29.6H111.062Z" fill="#161616"/>
<path d="M133.331 5.4C132.771 5.4 132.291 5.2 131.891 4.8C131.518 4.4 131.331 3.89333 131.331 3.28C131.331 2.66666 131.518 2.17333 131.891 1.8C132.291 1.4 132.771 1.2 133.331 1.2C133.891 1.2 134.358 1.4 134.731 1.8C135.105 2.17333 135.291 2.66666 135.291 3.28C135.291 3.89333 135.105 4.4 134.731 4.8C134.358 5.2 133.891 5.4 133.331 5.4ZM129.971 29.6C129.571 29.6 129.371 29.4533 129.371 29.16C129.371 28.92 129.545 28.76 129.891 28.68L130.371 28.6C131.038 28.4933 131.465 28.3333 131.651 28.12C131.838 27.88 131.931 27.48 131.931 26.92V13.48C131.931 13 131.851 12.68 131.691 12.52C131.558 12.3333 131.305 12.2133 130.931 12.16L130.091 12.04C129.745 12.0133 129.571 11.8667 129.571 11.6C129.571 11.3867 129.785 11.24 130.211 11.16C131.038 11.0267 131.705 10.8133 132.211 10.52C132.718 10.2267 133.211 9.86667 133.691 9.44C133.931 9.2 134.131 9.08 134.291 9.08C134.531 9.08 134.651 9.24 134.651 9.56V26.92C134.651 27.48 134.731 27.88 134.891 28.12C135.051 28.36 135.358 28.5067 135.811 28.56L136.811 28.68C137.105 28.7333 137.251 28.88 137.251 29.12C137.251 29.44 137.051 29.6 136.651 29.6H129.971Z" fill="#161616"/>
<path d="M143.837 11.76C144.931 9.89333 146.251 8.96 147.798 8.96C148.678 8.96 149.331 9.22667 149.758 9.76C150.184 10.2667 150.398 10.84 150.398 11.48C150.398 11.9867 150.264 12.4 149.997 12.72C149.757 13.04 149.371 13.2 148.837 13.2C148.411 13.2 148.091 13.1067 147.878 12.92C147.691 12.7067 147.531 12.4667 147.398 12.2C147.291 11.9333 147.158 11.7067 146.997 11.52C146.837 11.3067 146.571 11.2 146.197 11.2C145.717 11.2 145.264 11.4933 144.837 12.08C144.411 12.64 144.051 13.4 143.758 14.36C143.491 15.32 143.357 16.4133 143.357 17.64V26.92C143.357 27.48 143.438 27.88 143.598 28.12C143.784 28.36 144.158 28.5067 144.717 28.56L145.798 28.68C146.091 28.7333 146.238 28.88 146.238 29.12C146.238 29.44 146.037 29.6 145.637 29.6H138.878C138.478 29.6 138.277 29.4533 138.277 29.16C138.277 28.92 138.451 28.76 138.798 28.68L139.277 28.6C139.837 28.4933 140.197 28.3333 140.357 28.12C140.544 27.88 140.637 27.48 140.637 26.92V13.48C140.637 13 140.558 12.68 140.398 12.52C140.264 12.3333 140.011 12.2133 139.637 12.16L138.798 12.04C138.451 12.0133 138.277 11.8667 138.277 11.6C138.277 11.3867 138.491 11.24 138.917 11.16C139.744 11.0267 140.371 10.8133 140.798 10.52C141.251 10.2267 141.717 9.86667 142.197 9.44C142.438 9.2 142.637 9.08 142.798 9.08C143.038 9.08 143.158 9.24 143.158 9.56V11.72C143.158 11.9067 143.238 12.0267 143.398 12.08C143.558 12.1067 143.704 12 143.837 11.76Z" fill="#161616"/>
</svg>
