<svg width="1446" height="1371" viewBox="0 0 1446 1371" fill="none" xmlns="http://www.w3.org/2000/svg">
<rect width="1446" height="1371" rx="12" fill="white"/>
<g filter="url(#filter0_d_40_225)">
<path d="M681.471 1030.62C687.917 1013.44 685.332 992.473 683.234 984.136C700.103 979.083 737.617 996.768 742.149 1013.19C745.774 1026.33 731.311 1039.21 725.193 1043.53C713.913 1051.48 675.026 1047.8 681.471 1030.62Z" fill="#FF6160"/>
<path d="M662.117 982.691C668.142 976.963 699.159 979.509 713.913 981.498C688.121 968.239 674.538 966.515 670.97 967.311C661.774 969.114 661.236 978.316 662.117 982.691Z" fill="#FF6160"/>
<path d="M716.481 959.374C716.481 962.541 713.922 965.109 710.766 965.109C707.61 965.109 705.051 962.541 705.051 959.374C705.051 956.207 707.61 953.64 710.766 953.64C713.922 953.64 716.481 956.207 716.481 959.374Z" fill="#FF6160"/>
<path d="M655.992 925.201C648.63 945.912 665.194 950.54 674.397 950.265C679.017 951.722 685.288 944.596 687.845 940.851C703.715 920.33 739.313 934.9 755.129 944.75C779.833 924.721 762.763 896.878 751.139 885.46C752.585 897.069 743.525 904.589 738.814 906.897C741.707 883.548 725.887 871.884 717.616 868.971C722.217 887.835 712.083 899.037 706.441 902.28C707.625 880.382 691.268 874.467 682.942 874.247C684.914 893.244 678.724 906.128 675.383 910.195C672.622 901.62 663.387 901.346 659.114 902.28C658.621 908.051 655.992 924.211 655.992 925.201Z" fill="#FF6160"/>
</g>
<path d="M667.853 1133.76C664.966 1133.76 662.314 1133.12 659.897 1131.84C657.514 1130.57 655.601 1128.86 654.157 1126.71L658.437 1118.35C658.907 1120.56 660.015 1122.46 661.761 1124.04C663.506 1125.58 665.554 1126.36 667.904 1126.36C669.548 1126.36 671.025 1125.99 672.335 1125.25C673.644 1124.48 674.684 1123.45 675.457 1122.18C676.229 1120.87 676.615 1119.41 676.615 1117.8C676.615 1116.22 676.229 1114.79 675.457 1113.52C674.718 1112.21 673.677 1111.18 672.335 1110.44C671.025 1109.67 669.498 1109.29 667.753 1109.29C666.779 1109.29 665.839 1109.42 664.933 1109.69C664.06 1109.92 663.17 1110.28 662.264 1110.75L670.522 1094.63H657.279V1087.53H682.305L673.745 1103.55C675.759 1104.18 677.555 1105.21 679.132 1106.62C680.744 1107.99 682.019 1109.65 682.959 1111.6C683.899 1113.52 684.369 1115.65 684.369 1118C684.369 1120.95 683.614 1123.62 682.103 1126C680.593 1128.39 678.578 1130.28 676.061 1131.69C673.577 1133.07 670.841 1133.76 667.853 1133.76Z" fill="black"/>
<path d="M696.43 1132.85V1108.98H690.488V1102.64H696.581V1092.57H704.184V1102.64H710.529V1108.98H704.336V1132.85H696.43Z" fill="black"/>
<path d="M729.385 1133.76C726.061 1133.76 723.107 1133.05 720.522 1131.64C717.971 1130.23 715.974 1128.3 714.53 1125.85C713.121 1123.37 712.416 1120.56 712.416 1117.44C712.416 1114.46 713.104 1111.79 714.48 1109.44C715.89 1107.05 717.787 1105.17 720.17 1103.8C722.553 1102.42 725.188 1101.73 728.075 1101.73C731.029 1101.73 733.665 1102.42 735.981 1103.8C738.331 1105.14 740.194 1106.97 741.57 1109.29C742.946 1111.6 743.634 1114.24 743.634 1117.19V1120.06H724.853C724.014 1120.06 723.191 1120.01 722.385 1119.91C721.58 1119.81 720.774 1119.69 719.969 1119.56C720.371 1121.74 721.429 1123.54 723.141 1124.95C724.853 1126.36 727.001 1127.06 729.586 1127.06C731.499 1127.06 733.228 1126.66 734.772 1125.85C736.316 1125.05 737.592 1124.04 738.599 1122.83L740.412 1130.23C738.901 1131.41 737.206 1132.28 735.326 1132.85C733.446 1133.46 731.466 1133.76 729.385 1133.76ZM719.767 1114.67C721.479 1114.34 723.174 1114.17 724.853 1114.17H731.348C732.255 1114.17 733.111 1114.2 733.916 1114.27C734.722 1114.34 735.494 1114.44 736.233 1114.57C735.729 1112.63 734.739 1111.06 733.262 1109.89C731.818 1108.72 730.073 1108.13 728.025 1108.13C726.011 1108.13 724.265 1108.73 722.788 1109.94C721.311 1111.15 720.304 1112.73 719.767 1114.67Z" fill="black"/>
<path d="M749.057 1132.85V1102.64H756.157V1107.93C757.231 1106.18 758.573 1104.82 760.185 1103.85C761.83 1102.84 763.777 1102.34 766.026 1102.34L767.788 1109.49C767.15 1109.29 766.429 1109.18 765.623 1109.18C763.005 1109.18 760.907 1110.02 759.329 1111.7C757.751 1113.38 756.962 1115.76 756.962 1118.85V1132.85H749.057Z" fill="black"/>
<path d="M632.206 1167.56C630.7 1167.56 629.28 1167.28 627.944 1166.72C626.625 1166.14 625.46 1165.36 624.451 1164.36C623.458 1163.37 622.674 1162.21 622.099 1160.89C621.54 1159.58 621.261 1158.16 621.261 1156.66C621.261 1155.15 621.54 1153.74 622.099 1152.42C622.674 1151.1 623.458 1149.94 624.451 1148.95C625.46 1147.95 626.625 1147.18 627.944 1146.62C629.28 1146.04 630.7 1145.76 632.206 1145.76C633.728 1145.76 635.148 1146.04 636.468 1146.62C637.788 1147.18 638.944 1147.95 639.938 1148.95C640.947 1149.94 641.731 1151.1 642.29 1152.42C642.864 1153.74 643.152 1155.15 643.152 1156.66C643.152 1158.16 642.864 1159.58 642.29 1160.89C641.731 1162.21 640.947 1163.37 639.938 1164.36C638.944 1165.36 637.788 1166.14 636.468 1166.72C635.148 1167.28 633.728 1167.56 632.206 1167.56ZM632.206 1165.04C633.743 1165.04 635.133 1164.67 636.375 1163.92C637.617 1163.16 638.595 1162.14 639.309 1160.87C640.039 1159.6 640.404 1158.19 640.404 1156.66C640.404 1155.1 640.039 1153.7 639.309 1152.44C638.595 1151.17 637.617 1150.16 636.375 1149.41C635.133 1148.65 633.743 1148.27 632.206 1148.27C630.669 1148.27 629.28 1148.65 628.038 1149.41C626.811 1150.16 625.833 1151.17 625.103 1152.44C624.374 1153.7 624.009 1155.1 624.009 1156.66C624.009 1158.19 624.374 1159.6 625.103 1160.87C625.833 1162.14 626.811 1163.16 628.038 1163.92C629.28 1164.67 630.669 1165.04 632.206 1165.04Z" fill="black"/>
<path d="M646.792 1167.14V1153.16H649.121V1155.72C649.618 1154.9 650.277 1154.25 651.1 1153.77C651.923 1153.27 652.901 1153.02 654.035 1153.02L654.663 1155.54C654.368 1155.45 654.027 1155.4 653.639 1155.4C652.335 1155.4 651.287 1155.82 650.495 1156.66C649.703 1157.48 649.307 1158.66 649.307 1160.2V1167.14H646.792Z" fill="black"/>
<path d="M662.472 1174.4C661.401 1174.4 660.423 1174.25 659.538 1173.94C658.668 1173.63 657.892 1173.2 657.209 1172.66L657.908 1169.81C658.373 1170.48 658.994 1171.03 659.771 1171.44C660.547 1171.86 661.44 1172.07 662.449 1172.07C664.017 1172.07 665.282 1171.6 666.245 1170.65C667.223 1169.71 667.712 1168.49 667.712 1167V1165.3C667.091 1165.92 666.354 1166.41 665.5 1166.79C664.661 1167.14 663.761 1167.32 662.798 1167.32C661.525 1167.32 660.361 1167 659.305 1166.37C658.249 1165.72 657.403 1164.85 656.767 1163.76C656.146 1162.67 655.835 1161.47 655.835 1160.15C655.835 1158.83 656.146 1157.63 656.767 1156.54C657.403 1155.45 658.249 1154.59 659.305 1153.95C660.361 1153.3 661.525 1152.98 662.798 1152.98C663.761 1152.98 664.661 1153.16 665.5 1153.51C666.354 1153.87 667.091 1154.37 667.712 1155V1153.16H670.041V1167.14C670.041 1168.66 669.684 1169.96 668.97 1171.05C668.271 1172.14 667.347 1172.97 666.198 1173.54C665.049 1174.11 663.807 1174.4 662.472 1174.4ZM663.124 1165.04C664.009 1165.04 664.809 1164.82 665.523 1164.39C666.253 1163.94 666.827 1163.35 667.246 1162.62C667.681 1161.87 667.898 1161.05 667.898 1160.15C667.898 1159.25 667.681 1158.43 667.246 1157.7C666.827 1156.96 666.253 1156.37 665.523 1155.93C664.809 1155.48 664.009 1155.26 663.124 1155.26C662.239 1155.26 661.432 1155.48 660.702 1155.93C659.988 1156.37 659.414 1156.96 658.979 1157.7C658.56 1158.43 658.35 1159.25 658.35 1160.15C658.35 1161.05 658.56 1161.87 658.979 1162.62C659.414 1163.35 659.988 1163.94 660.702 1164.39C661.432 1164.82 662.239 1165.04 663.124 1165.04Z" fill="black"/>
<path d="M680.483 1167.32C679.21 1167.32 678.045 1167 676.989 1166.37C675.934 1165.72 675.088 1164.85 674.451 1163.76C673.83 1162.67 673.52 1161.47 673.52 1160.15C673.52 1158.83 673.83 1157.63 674.451 1156.54C675.088 1155.45 675.934 1154.59 676.989 1153.95C678.045 1153.3 679.21 1152.98 680.483 1152.98C681.445 1152.98 682.346 1153.16 683.184 1153.51C684.038 1153.87 684.776 1154.37 685.397 1155V1153.16H687.725V1167.14H685.397V1165.3C684.776 1165.92 684.038 1166.41 683.184 1166.79C682.346 1167.14 681.445 1167.32 680.483 1167.32ZM680.809 1165.04C681.694 1165.04 682.493 1164.82 683.207 1164.39C683.937 1163.94 684.512 1163.35 684.931 1162.62C685.365 1161.87 685.583 1161.05 685.583 1160.15C685.583 1159.25 685.365 1158.43 684.931 1157.7C684.512 1156.96 683.937 1156.37 683.207 1155.93C682.493 1155.48 681.694 1155.26 680.809 1155.26C679.924 1155.26 679.116 1155.48 678.387 1155.93C677.673 1156.37 677.098 1156.96 676.663 1157.7C676.244 1158.43 676.035 1159.25 676.035 1160.15C676.035 1161.05 676.244 1161.87 676.663 1162.62C677.098 1163.35 677.673 1163.94 678.387 1164.39C679.116 1164.82 679.924 1165.04 680.809 1165.04Z" fill="black"/>
<path d="M692.182 1167.14V1153.16H694.511V1155.42C695.023 1154.6 695.683 1153.97 696.49 1153.54C697.313 1153.1 698.198 1152.88 699.145 1152.88C700.139 1152.88 701.055 1153.13 701.893 1153.63C702.747 1154.11 703.438 1154.82 703.966 1155.75C704.494 1156.66 704.758 1157.78 704.758 1159.1V1167.14H702.243V1159.45C702.243 1158.35 701.909 1157.38 701.241 1156.54C700.589 1155.69 699.665 1155.26 698.47 1155.26C697.492 1155.26 696.615 1155.62 695.838 1156.33C695.078 1157.03 694.697 1158.05 694.697 1159.38V1167.14H692.182Z" fill="black"/>
<path d="M708.95 1167.14V1153.16H711.465V1167.14H708.95Z" fill="black"/>
<path d="M722.353 1167.42C720.987 1167.42 719.744 1167.09 718.627 1166.44C717.509 1165.79 716.616 1164.91 715.949 1163.81C715.281 1162.7 714.947 1161.48 714.947 1160.15C714.947 1158.81 715.281 1157.6 715.949 1156.49C716.616 1155.39 717.509 1154.51 718.627 1153.86C719.744 1153.21 720.987 1152.88 722.353 1152.88C723.362 1152.88 724.309 1153.06 725.194 1153.42C726.079 1153.78 726.855 1154.25 727.523 1154.84L726.754 1158.01C726.366 1157.23 725.776 1156.58 724.984 1156.05C724.208 1155.52 723.323 1155.26 722.329 1155.26C721.429 1155.26 720.606 1155.48 719.861 1155.93C719.131 1156.37 718.549 1156.96 718.114 1157.7C717.68 1158.43 717.462 1159.25 717.462 1160.15C717.462 1161.03 717.68 1161.85 718.114 1162.59C718.549 1163.34 719.131 1163.94 719.861 1164.39C720.606 1164.82 721.429 1165.04 722.329 1165.04C723.323 1165.04 724.208 1164.78 724.984 1164.27C725.776 1163.76 726.366 1163.1 726.754 1162.29L727.523 1165.46C726.855 1166.05 726.079 1166.52 725.194 1166.88C724.309 1167.24 723.362 1167.42 722.353 1167.42Z" fill="black"/>
<path d="M713.694 1146.68C710.322 1147.04 710.083 1150.52 710.083 1152.1C710.784 1150.47 711.017 1150.64 711.272 1150.36C711.061 1151.01 710.739 1151.5 710.286 1152.16C714.135 1151.06 713.762 1147.87 713.694 1146.68Z" fill="#1D7936"/>
<path d="M738.522 1166.72V1145.76H748.862V1148.13H741.177V1152.6H748.164V1154.98H741.177V1166.72H738.522Z" fill="black"/>
<path d="M756.614 1166.9C755.341 1166.9 754.176 1166.58 753.121 1165.95C752.065 1165.3 751.219 1164.43 750.582 1163.34C749.961 1162.25 749.651 1161.05 749.651 1159.73C749.651 1158.41 749.961 1157.21 750.582 1156.12C751.219 1155.03 752.065 1154.17 753.121 1153.54C754.176 1152.88 755.341 1152.56 756.614 1152.56C757.576 1152.56 758.477 1152.74 759.315 1153.09C760.169 1153.45 760.907 1153.95 761.528 1154.58V1152.74H763.856V1166.72H761.528V1164.88C760.907 1165.5 760.169 1165.99 759.315 1166.37C758.477 1166.72 757.576 1166.9 756.614 1166.9ZM756.94 1164.62C757.825 1164.62 758.624 1164.4 759.339 1163.97C760.068 1163.52 760.643 1162.93 761.062 1162.2C761.497 1161.45 761.714 1160.63 761.714 1159.73C761.714 1158.83 761.497 1158.01 761.062 1157.28C760.643 1156.54 760.068 1155.95 759.339 1155.52C758.624 1155.06 757.825 1154.84 756.94 1154.84C756.055 1154.84 755.248 1155.06 754.518 1155.52C753.804 1155.95 753.229 1156.54 752.795 1157.28C752.375 1158.01 752.166 1158.83 752.166 1159.73C752.166 1160.63 752.375 1161.45 752.795 1162.2C753.229 1162.93 753.804 1163.52 754.518 1163.97C755.248 1164.4 756.055 1164.62 756.94 1164.62Z" fill="black"/>
<path d="M768.313 1166.72V1152.74H770.642V1155.31C771.139 1154.48 771.799 1153.83 772.622 1153.35C773.444 1152.85 774.422 1152.6 775.556 1152.6L776.185 1155.12C775.89 1155.03 775.548 1154.98 775.16 1154.98C773.856 1154.98 772.808 1155.4 772.016 1156.24C771.224 1157.06 770.828 1158.24 770.828 1159.78V1166.72H768.313Z" fill="black"/>
<path d="M778.793 1166.72V1152.74H781.122V1154.75C781.634 1153.99 782.278 1153.42 783.055 1153.05C783.846 1152.66 784.677 1152.46 785.546 1152.46C786.494 1152.46 787.363 1152.69 788.155 1153.14C788.947 1153.57 789.583 1154.19 790.064 1154.98C790.608 1154.14 791.306 1153.51 792.16 1153.09C793.03 1152.67 793.946 1152.46 794.908 1152.46C795.964 1152.46 796.927 1152.71 797.796 1153.21C798.681 1153.71 799.38 1154.41 799.892 1155.31C800.42 1156.19 800.684 1157.24 800.684 1158.45V1166.72H798.169V1158.75C798.169 1157.48 797.804 1156.52 797.074 1155.86C796.36 1155.2 795.529 1154.86 794.582 1154.86C793.992 1154.86 793.418 1154.99 792.859 1155.26C792.316 1155.52 791.865 1155.93 791.508 1156.49C791.167 1157.05 790.996 1157.78 790.996 1158.68V1166.72H788.481V1158.75C788.481 1157.87 788.302 1157.14 787.945 1156.56C787.604 1155.99 787.153 1155.56 786.594 1155.28C786.051 1154.99 785.484 1154.84 784.894 1154.84C784.32 1154.84 783.753 1154.97 783.194 1155.24C782.651 1155.5 782.201 1155.91 781.844 1156.47C781.487 1157.03 781.308 1157.77 781.308 1158.68V1166.72H778.793Z" fill="black"/>
<g filter="url(#filter1_d_40_225)">
<path d="M574.239 440.184C580.195 424.117 577.807 404.505 575.868 396.708C591.456 391.982 626.121 408.522 630.308 423.88C633.659 436.167 620.294 448.218 614.641 452.252C604.218 459.691 568.284 456.251 574.239 440.184Z" fill="#FF6160"/>
<path d="M556.355 395.357C561.923 390 590.583 392.381 604.218 394.241C580.384 381.84 567.833 380.228 564.536 380.972C556.038 382.659 555.541 391.265 556.355 395.357Z" fill="#FF6160"/>
<path d="M606.59 373.55C606.59 376.512 604.225 378.913 601.309 378.913C598.393 378.913 596.028 376.512 596.028 373.55C596.028 370.588 598.393 368.187 601.309 368.187C604.225 368.187 606.59 370.588 606.59 373.55Z" fill="#FF6160"/>
<path d="M550.695 341.589C543.892 360.959 559.199 365.288 567.702 365.031C571.972 366.393 577.766 359.729 580.13 356.226C594.794 337.033 627.688 350.66 642.302 359.873C665.131 341.141 649.357 315.101 638.616 304.422C639.952 315.279 631.58 322.312 627.227 324.471C629.9 302.633 615.282 291.725 607.639 289C611.891 306.643 602.526 317.12 597.313 320.153C598.406 299.672 583.292 294.141 575.599 293.935C577.421 311.701 571.701 323.751 568.613 327.555C566.062 319.536 557.528 319.279 553.58 320.153C553.125 325.55 550.695 340.664 550.695 341.589Z" fill="#FF6160"/>
</g>
<path d="M719.111 339C715.926 339 713 338.296 710.333 336.889C707.704 335.481 705.593 333.593 704 331.222L708.722 322C709.241 324.444 710.463 326.537 712.389 328.278C714.315 329.981 716.574 330.833 719.167 330.833C720.981 330.833 722.611 330.426 724.056 329.611C725.5 328.759 726.648 327.63 727.5 326.222C728.352 324.778 728.778 323.167 728.778 321.389C728.778 319.648 728.352 318.074 727.5 316.667C726.685 315.222 725.537 314.093 724.056 313.278C722.611 312.426 720.926 312 719 312C717.926 312 716.889 312.148 715.889 312.444C714.926 312.704 713.944 313.093 712.944 313.611L722.056 295.833H707.444V288H735.056L725.611 305.667C727.833 306.37 729.815 307.5 731.556 309.056C733.333 310.574 734.741 312.407 735.778 314.556C736.815 316.667 737.333 319.019 737.333 321.611C737.333 324.87 736.5 327.815 734.833 330.444C733.167 333.074 730.944 335.167 728.167 336.722C725.426 338.241 722.407 339 719.111 339Z" fill="black"/>
<path d="M750.641 338V311.667H744.085V304.667H750.807V293.556H759.196V304.667H766.196V311.667H759.363V338H750.641Z" fill="black"/>
<path d="M787 339C783.333 339 780.074 338.222 777.222 336.667C774.407 335.111 772.204 332.981 770.611 330.278C769.056 327.537 768.278 324.444 768.278 321C768.278 317.704 769.037 314.759 770.556 312.167C772.111 309.537 774.204 307.463 776.833 305.944C779.463 304.426 782.37 303.667 785.556 303.667C788.815 303.667 791.722 304.426 794.278 305.944C796.87 307.426 798.926 309.444 800.444 312C801.963 314.556 802.722 317.463 802.722 320.722V323.889H782C781.074 323.889 780.167 323.833 779.278 323.722C778.389 323.611 777.5 323.481 776.611 323.333C777.056 325.741 778.222 327.722 780.111 329.278C782 330.833 784.37 331.611 787.222 331.611C789.333 331.611 791.241 331.167 792.944 330.278C794.648 329.389 796.056 328.278 797.167 326.944L799.167 335.111C797.5 336.407 795.63 337.37 793.556 338C791.481 338.667 789.296 339 787 339ZM776.389 317.944C778.278 317.574 780.148 317.389 782 317.389H789.167C790.167 317.389 791.111 317.426 792 317.5C792.889 317.574 793.741 317.685 794.556 317.833C794 315.685 792.907 313.963 791.278 312.667C789.685 311.37 787.759 310.722 785.5 310.722C783.278 310.722 781.352 311.389 779.722 312.722C778.093 314.056 776.981 315.796 776.389 317.944Z" fill="black"/>
<path d="M808.705 338V304.667H816.538V310.5C817.723 308.574 819.205 307.074 820.983 306C822.797 304.889 824.946 304.333 827.427 304.333L829.372 312.222C828.668 312 827.872 311.889 826.983 311.889C824.094 311.889 821.779 312.815 820.038 314.667C818.297 316.519 817.427 319.148 817.427 322.556V338H808.705Z" fill="black"/>
<path d="M879.91 356C872.523 356.663 872 363.016 872 365.885C873.535 362.925 874.047 363.234 874.604 362.708C874.141 363.908 873.436 364.806 872.445 366C880.875 364.002 880.059 358.172 879.91 356Z" fill="#1D7936"/>
<path d="M724.704 398.659C721.855 398.659 719.168 398.073 716.643 396.902C714.146 395.699 711.944 394.057 710.035 391.976C708.155 389.894 706.672 387.472 705.586 384.707C704.529 381.943 704 378.984 704 375.829C704 372.675 704.529 369.715 705.586 366.951C706.672 364.187 708.155 361.764 710.035 359.683C711.944 357.602 714.146 355.976 716.643 354.805C719.168 353.602 721.855 353 724.704 353C727.582 353 730.269 353.602 732.765 354.805C735.261 355.976 737.449 357.602 739.329 359.683C741.238 361.764 742.721 364.187 743.778 366.951C744.865 369.715 745.408 372.675 745.408 375.829C745.408 378.984 744.865 381.943 743.778 384.707C742.721 387.472 741.238 389.894 739.329 391.976C737.449 394.057 735.261 395.699 732.765 396.902C730.269 398.073 727.582 398.659 724.704 398.659ZM724.704 393.39C727.611 393.39 730.24 392.61 732.589 391.049C734.938 389.455 736.789 387.325 738.139 384.659C739.52 381.992 740.21 379.049 740.21 375.829C740.21 372.577 739.52 369.634 738.139 367C736.789 364.333 734.938 362.22 732.589 360.659C730.24 359.065 727.611 358.268 724.704 358.268C721.797 358.268 719.168 359.065 716.819 360.659C714.499 362.22 712.649 364.333 711.268 367C709.888 369.634 709.198 372.577 709.198 375.829C709.198 379.049 709.888 381.992 711.268 384.659C712.649 387.325 714.499 389.455 716.819 391.049C719.168 392.61 721.797 393.39 724.704 393.39Z" fill="black"/>
<path d="M752.294 397.78V368.512H756.699V373.878C757.638 372.154 758.886 370.789 760.443 369.78C761.999 368.74 763.85 368.22 765.993 368.22L767.183 373.488C766.625 373.293 765.979 373.195 765.244 373.195C762.778 373.195 760.795 374.073 759.298 375.829C757.8 377.553 757.051 380.024 757.051 383.244V397.78H752.294Z" fill="black"/>
<path d="M781.954 413C779.927 413 778.077 412.675 776.403 412.024C774.759 411.374 773.29 410.48 771.998 409.341L773.32 403.39C774.201 404.789 775.375 405.927 776.844 406.805C778.312 407.683 780.001 408.122 781.909 408.122C784.876 408.122 787.269 407.13 789.09 405.146C790.94 403.163 791.865 400.61 791.865 397.488V393.927C790.69 395.228 789.295 396.268 787.68 397.049C786.094 397.797 784.391 398.171 782.57 398.171C780.162 398.171 777.96 397.504 775.963 396.171C773.966 394.805 772.365 392.984 771.161 390.707C769.986 388.431 769.399 385.911 769.399 383.146C769.399 380.382 769.986 377.862 771.161 375.585C772.365 373.309 773.966 371.504 775.963 370.171C777.96 368.805 780.162 368.122 782.57 368.122C784.391 368.122 786.094 368.496 787.68 369.244C789.295 369.992 790.69 371.033 791.865 372.366V368.512H796.27V397.78C796.27 400.967 795.595 403.699 794.244 405.976C792.922 408.252 791.175 409.992 789.002 411.195C786.828 412.398 784.479 413 781.954 413ZM783.187 393.39C784.861 393.39 786.373 392.935 787.724 392.024C789.104 391.081 790.191 389.846 790.984 388.317C791.806 386.756 792.217 385.033 792.217 383.146C792.217 381.26 791.806 379.553 790.984 378.024C790.191 376.463 789.104 375.228 787.724 374.317C786.373 373.374 784.861 372.902 783.187 372.902C781.513 372.902 779.986 373.374 778.606 374.317C777.255 375.228 776.168 376.463 775.346 378.024C774.553 379.553 774.157 381.26 774.157 383.146C774.157 385.033 774.553 386.756 775.346 388.317C776.168 389.846 777.255 391.081 778.606 392.024C779.986 392.935 781.513 393.39 783.187 393.39Z" fill="black"/>
<path d="M816.021 398.171C813.613 398.171 811.411 397.504 809.414 396.171C807.417 394.805 805.816 392.984 804.612 390.707C803.438 388.431 802.85 385.911 802.85 383.146C802.85 380.382 803.438 377.862 804.612 375.585C805.816 373.309 807.417 371.504 809.414 370.171C811.411 368.805 813.613 368.122 816.021 368.122C817.842 368.122 819.545 368.496 821.131 369.244C822.746 369.992 824.141 371.033 825.316 372.366V368.512H829.721V397.78H825.316V393.927C824.141 395.228 822.746 396.268 821.131 397.049C819.545 397.797 817.842 398.171 816.021 398.171ZM816.638 393.39C818.312 393.39 819.824 392.935 821.175 392.024C822.556 391.081 823.642 389.846 824.435 388.317C825.257 386.756 825.669 385.033 825.669 383.146C825.669 381.26 825.257 379.553 824.435 378.024C823.642 376.463 822.556 375.228 821.175 374.317C819.824 373.374 818.312 372.902 816.638 372.902C814.964 372.902 813.437 373.374 812.057 374.317C810.706 375.228 809.619 376.463 808.797 378.024C808.004 379.553 807.608 381.26 807.608 383.146C807.608 385.033 808.004 386.756 808.797 388.317C809.619 389.846 810.706 391.081 812.057 392.024C813.437 392.935 814.964 393.39 816.638 393.39Z" fill="black"/>
<path d="M838.151 397.78V368.512H842.557V373.244C843.526 371.52 844.774 370.203 846.301 369.293C847.857 368.382 849.531 367.927 851.323 367.927C853.202 367.927 854.935 368.447 856.521 369.488C858.136 370.496 859.443 371.976 860.441 373.927C861.44 375.846 861.939 378.187 861.939 380.951V397.78H857.181V381.683C857.181 379.374 856.55 377.341 855.287 375.585C854.054 373.797 852.306 372.902 850.045 372.902C848.195 372.902 846.536 373.65 845.067 375.146C843.628 376.61 842.909 378.74 842.909 381.537V397.78H838.151Z" fill="black"/>
<path d="M869.868 397.78V368.512H874.626V397.78H869.868Z" fill="black"/>
<path d="M895.221 398.366C892.636 398.366 890.287 397.683 888.173 396.317C886.058 394.951 884.37 393.114 883.107 390.805C881.844 388.496 881.213 385.943 881.213 383.146C881.213 380.35 881.844 377.797 883.107 375.488C884.37 373.179 886.058 371.341 888.173 369.976C890.287 368.61 892.636 367.927 895.221 367.927C897.13 367.927 898.921 368.301 900.595 369.049C902.269 369.797 903.737 370.789 905 372.024L903.546 378.659C902.812 377.033 901.696 375.667 900.198 374.561C898.73 373.455 897.056 372.902 895.177 372.902C893.473 372.902 891.917 373.374 890.507 374.317C889.127 375.228 888.026 376.463 887.203 378.024C886.381 379.553 885.97 381.26 885.97 383.146C885.97 385 886.381 386.707 887.203 388.268C888.026 389.829 889.127 391.081 890.507 392.024C891.917 392.935 893.473 393.39 895.177 393.39C897.056 393.39 898.73 392.854 900.198 391.78C901.696 390.707 902.812 389.325 903.546 387.634L905 394.268C903.737 395.504 902.269 396.496 900.595 397.244C898.921 397.992 897.13 398.366 895.221 398.366Z" fill="black"/>
<path d="M704 455.612V412H725.854V416.943H709.611V426.247H724.377V431.189H709.611V455.612H704Z" fill="black"/>
<path d="M740.11 456C737.419 456 734.958 455.338 732.727 454.013C730.496 452.656 728.707 450.847 727.362 448.586C726.049 446.325 725.393 443.821 725.393 441.075C725.393 438.329 726.049 435.825 727.362 433.564C728.707 431.302 730.496 429.51 732.727 428.185C734.958 426.828 737.419 426.15 740.11 426.15C742.144 426.15 744.048 426.521 745.819 427.264C747.624 428.007 749.183 429.041 750.495 430.366V426.537H755.417V455.612H750.495V451.784C749.183 453.076 747.624 454.11 745.819 454.885C744.048 455.628 742.144 456 740.11 456ZM740.799 451.251C742.669 451.251 744.359 450.799 745.869 449.894C747.411 448.957 748.625 447.73 749.511 446.211C750.43 444.661 750.889 442.949 750.889 441.075C750.889 439.201 750.43 437.505 749.511 435.987C748.625 434.436 747.411 433.209 745.869 432.304C744.359 431.367 742.669 430.899 740.799 430.899C738.929 430.899 737.222 431.367 735.68 432.304C734.171 433.209 732.957 434.436 732.038 435.987C731.152 437.505 730.709 439.201 730.709 441.075C730.709 442.949 731.152 444.661 732.038 446.211C732.957 447.73 734.171 448.957 735.68 449.894C737.222 450.799 738.929 451.251 740.799 451.251Z" fill="black"/>
<path d="M762.711 455.612V426.537H767.633V431.868C768.683 430.156 770.077 428.799 771.816 427.797C773.555 426.764 775.623 426.247 778.018 426.247L779.347 431.48C778.723 431.286 778.002 431.189 777.181 431.189C774.425 431.189 772.21 432.062 770.536 433.806C768.863 435.518 768.026 437.974 768.026 441.172V455.612H762.711Z" fill="black"/>
<path d="M782.733 455.612V426.537H787.655V430.705C788.738 429.122 790.1 427.943 791.74 427.167C793.414 426.36 795.169 425.956 797.007 425.956C799.009 425.956 800.846 426.424 802.52 427.361C804.193 428.266 805.538 429.542 806.556 431.189C807.704 429.445 809.181 428.137 810.985 427.264C812.823 426.392 814.759 425.956 816.793 425.956C819.025 425.956 821.059 426.473 822.897 427.507C824.767 428.54 826.244 429.994 827.327 431.868C828.442 433.709 829 435.89 829 438.41V455.612H823.684V439.04C823.684 436.391 822.913 434.388 821.371 433.031C819.861 431.642 818.106 430.947 816.104 430.947C814.857 430.947 813.643 431.222 812.462 431.771C811.314 432.32 810.362 433.176 809.607 434.339C808.885 435.502 808.524 437.021 808.524 438.894V455.612H803.209V439.04C803.209 437.198 802.831 435.68 802.077 434.485C801.355 433.289 800.403 432.401 799.222 431.819C798.073 431.206 796.876 430.899 795.629 430.899C794.415 430.899 793.217 431.173 792.036 431.722C790.887 432.272 789.936 433.128 789.181 434.291C788.426 435.454 788.049 436.988 788.049 438.894V455.612H782.733Z" fill="black"/>
<line x1="396" y1="455.5" x2="1050" y2="455.5" stroke="#CCCCCC"/>
<line x1="396" y1="868.471" x2="1050" y2="868.471" stroke="#CCCCCC"/>
<line x1="396" y1="1047.39" x2="1050" y2="1047.39" stroke="#CCCCCC"/>
<line x1="396" y1="1087.39" x2="1050" y2="1087.39" stroke="#CCCCCC"/>
<line x1="396" y1="1133.61" x2="1050" y2="1133.61" stroke="#CCCCCC"/>
<line x1="396" y1="1145.61" x2="1050" y2="1145.61" stroke="#CCCCCC"/>
<line x1="396" y1="1167.76" x2="1050" y2="1167.76" stroke="#CCCCCC"/>
<line x1="396" y1="412.5" x2="1050" y2="412.5" stroke="#CCCCCC"/>
<line x1="396" y1="398.5" x2="1050" y2="398.5" stroke="#CCCCCC"/>
<line x1="396" y1="352.5" x2="1050" y2="352.5" stroke="#CCCCCC"/>
<line x1="396" y1="338.5" x2="1050" y2="338.5" stroke="#CCCCCC"/>
<line x1="396" y1="287.5" x2="1050" y2="287.5" stroke="#CCCCCC"/>
<line x1="549.5" y1="210" x2="549.5" y2="539" stroke="#CCCCCC"/>
<line x1="654.5" y1="210" x2="654.5" y2="539" stroke="#CCCCCC"/>
<line x1="801.184" y1="830" x2="801.184" y2="1236.25" stroke="#CCCCCC"/>
<line x1="768.288" y1="830" x2="768.288" y2="1236.25" stroke="#CCCCCC"/>
<line x1="654.657" y1="830" x2="654.657" y2="1236.25" stroke="#CCCCCC"/>
<line x1="621.761" y1="830" x2="621.761" y2="1236.25" stroke="#CCCCCC"/>
<line x1="704.5" y1="210" x2="704.5" y2="539" stroke="#CCCCCC"/>
<line x1="829.5" y1="210" x2="829.5" y2="539" stroke="#CCCCCC"/>
<defs>
<filter id="filter0_d_40_225" x="651.157" y="865.971" width="119.631" height="184.562" filterUnits="userSpaceOnUse" color-interpolation-filters="sRGB">
<feFlood flood-opacity="0" result="BackgroundImageFix"/>
<feColorMatrix in="SourceAlpha" type="matrix" values="0 0 0 0 0 0 0 0 0 0 0 0 0 0 0 0 0 0 127 0" result="hardAlpha"/>
<feOffset/>
<feGaussianBlur stdDeviation="1.5"/>
<feComposite in2="hardAlpha" operator="out"/>
<feColorMatrix type="matrix" values="0 0 0 0 0 0 0 0 0 0 0 0 0 0 0 0 0 0 0.25 0"/>
<feBlend mode="normal" in2="BackgroundImageFix" result="effect1_dropShadow_40_225"/>
<feBlend mode="normal" in="SourceGraphic" in2="effect1_dropShadow_40_225" result="shape"/>
</filter>
<filter id="filter1_d_40_225" x="546" y="286" width="111" height="173" filterUnits="userSpaceOnUse" color-interpolation-filters="sRGB">
<feFlood flood-opacity="0" result="BackgroundImageFix"/>
<feColorMatrix in="SourceAlpha" type="matrix" values="0 0 0 0 0 0 0 0 0 0 0 0 0 0 0 0 0 0 127 0" result="hardAlpha"/>
<feOffset/>
<feGaussianBlur stdDeviation="1.5"/>
<feComposite in2="hardAlpha" operator="out"/>
<feColorMatrix type="matrix" values="0 0 0 0 0 0 0 0 0 0 0 0 0 0 0 0 0 0 0.25 0"/>
<feBlend mode="normal" in2="BackgroundImageFix" result="effect1_dropShadow_40_225"/>
<feBlend mode="normal" in="SourceGraphic" in2="effect1_dropShadow_40_225" result="shape"/>
</filter>
</defs>
</svg>
