<svg width="1446" height="1371" viewBox="0 0 1446 1371" fill="none" xmlns="http://www.w3.org/2000/svg">
<rect width="1446" height="1371" rx="12" fill="white"/>
<rect x="56" y="60" width="451" height="438" rx="12" fill="#ECECEC"/>
<g filter="url(#filter0_d_33_27)">
<path d="M194.903 319.435C198.42 309.717 197.01 297.856 195.865 293.141C205.069 290.283 225.538 300.286 228.011 309.574C229.989 317.005 222.097 324.293 218.759 326.733C212.605 331.232 191.386 329.152 194.903 319.435Z" fill="black"/>
<path d="M184.343 292.324C187.631 289.084 204.554 290.524 212.605 291.649C198.532 284.149 191.12 283.174 189.174 283.624C184.156 284.644 183.863 289.849 184.343 292.324Z" fill="black"/>
<path d="M214.005 279.135C214.005 280.926 212.609 282.379 210.887 282.379C209.165 282.379 207.769 280.926 207.769 279.135C207.769 277.344 209.165 275.891 210.887 275.891C212.609 275.891 214.005 277.344 214.005 279.135Z" fill="black"/>
<path d="M181.001 259.805C176.984 271.52 186.022 274.138 191.043 273.983C193.564 274.807 196.986 270.776 198.381 268.658C207.04 257.05 226.464 265.292 235.093 270.863C248.572 259.534 239.258 243.785 232.916 237.327C233.705 243.893 228.762 248.147 226.191 249.452C227.769 236.245 219.138 229.648 214.625 228C217.135 238.67 211.606 245.006 208.528 246.841C209.173 234.454 200.249 231.109 195.706 230.985C196.782 241.729 193.404 249.017 191.581 251.318C190.075 246.468 185.036 246.312 182.705 246.841C182.436 250.105 181.001 259.246 181.001 259.805Z" fill="black"/>
</g>
<path d="M266.019 257.021C264.21 257.021 262.548 256.621 261.033 255.821C259.539 255.022 258.34 253.949 257.436 252.603L260.118 247.364C260.413 248.752 261.107 249.941 262.201 250.93C263.295 251.898 264.578 252.382 266.051 252.382C267.082 252.382 268.008 252.15 268.828 251.687C269.649 251.203 270.301 250.562 270.785 249.762C271.269 248.942 271.51 248.027 271.51 247.017C271.51 246.028 271.269 245.134 270.785 244.334C270.322 243.514 269.67 242.872 268.828 242.409C268.008 241.925 267.05 241.683 265.956 241.683C265.346 241.683 264.757 241.768 264.189 241.936C263.642 242.083 263.084 242.304 262.516 242.599L267.692 232.5H259.392V228.05H275.077L269.712 238.086C270.974 238.486 272.1 239.127 273.088 240.011C274.098 240.873 274.898 241.915 275.487 243.135C276.076 244.334 276.37 245.67 276.37 247.143C276.37 248.994 275.897 250.667 274.95 252.161C274.004 253.654 272.741 254.843 271.163 255.727C269.606 256.589 267.892 257.021 266.019 257.021Z" fill="black"/>
<path d="M283.93 256.453V241.494H280.206V237.518H284.024V231.206H288.79V237.518H292.766V241.494H288.884V256.453H283.93Z" fill="black"/>
<path d="M304.583 257.021C302.501 257.021 300.649 256.579 299.029 255.695C297.43 254.812 296.178 253.602 295.274 252.066C294.39 250.509 293.948 248.752 293.948 246.796C293.948 244.923 294.38 243.251 295.242 241.778C296.126 240.284 297.315 239.106 298.808 238.244C300.302 237.381 301.954 236.95 303.763 236.95C305.614 236.95 307.266 237.381 308.718 238.244C310.19 239.085 311.358 240.232 312.22 241.683C313.083 243.135 313.514 244.787 313.514 246.638V248.437H301.743C301.217 248.437 300.702 248.405 300.197 248.342C299.692 248.279 299.187 248.205 298.682 248.121C298.935 249.489 299.597 250.614 300.67 251.498C301.743 252.382 303.09 252.823 304.71 252.823C305.909 252.823 306.992 252.571 307.96 252.066C308.928 251.561 309.727 250.93 310.359 250.173L311.495 254.812C310.548 255.548 309.485 256.095 308.307 256.453C307.129 256.831 305.888 257.021 304.583 257.021ZM298.556 245.06C299.629 244.85 300.691 244.745 301.743 244.745H305.814C306.382 244.745 306.919 244.766 307.424 244.808C307.929 244.85 308.412 244.913 308.875 244.997C308.56 243.777 307.939 242.798 307.013 242.062C306.109 241.326 305.015 240.958 303.731 240.958C302.469 240.958 301.375 241.336 300.449 242.094C299.524 242.851 298.892 243.84 298.556 245.06Z" fill="black"/>
<path d="M316.913 256.453V237.518H321.362V240.831C322.036 239.737 322.877 238.885 323.887 238.275C324.918 237.644 326.138 237.328 327.548 237.328L328.652 241.81C328.253 241.683 327.8 241.62 327.295 241.62C325.654 241.62 324.339 242.146 323.351 243.198C322.362 244.25 321.867 245.744 321.867 247.679V256.453H316.913Z" fill="black"/>
<path d="M270.367 289.328C268.581 289.328 266.897 288.997 265.314 288.334C263.749 287.653 262.368 286.723 261.172 285.545C259.994 284.367 259.064 282.995 258.383 281.431C257.72 279.866 257.389 278.191 257.389 276.405C257.389 274.619 257.72 272.944 258.383 271.379C259.064 269.815 259.994 268.443 261.172 267.265C262.368 266.087 263.749 265.166 265.314 264.504C266.897 263.822 268.581 263.482 270.367 263.482C272.171 263.482 273.855 263.822 275.42 264.504C276.985 265.166 278.356 266.087 279.535 267.265C280.731 268.443 281.661 269.815 282.324 271.379C283.005 272.944 283.345 274.619 283.345 276.405C283.345 278.191 283.005 279.866 282.324 281.431C281.661 282.995 280.731 284.367 279.535 285.545C278.356 286.723 276.985 287.653 275.42 288.334C273.855 288.997 272.171 289.328 270.367 289.328ZM270.367 286.346C272.189 286.346 273.837 285.904 275.31 285.02C276.782 284.118 277.942 282.913 278.789 281.403C279.654 279.893 280.087 278.227 280.087 276.405C280.087 274.564 279.654 272.898 278.789 271.407C277.942 269.897 276.782 268.701 275.31 267.817C273.837 266.915 272.189 266.464 270.367 266.464C268.544 266.464 266.897 266.915 265.424 267.817C263.97 268.701 262.81 269.897 261.945 271.407C261.08 272.898 260.647 274.564 260.647 276.405C260.647 278.227 261.08 279.893 261.945 281.403C262.81 282.913 263.97 284.118 265.424 285.02C266.897 285.904 268.544 286.346 270.367 286.346Z" fill="black"/>
<path d="M287.662 288.831V272.263H290.423V275.3C291.012 274.325 291.794 273.552 292.77 272.981C293.746 272.392 294.905 272.097 296.249 272.097L296.995 275.08C296.645 274.969 296.24 274.914 295.78 274.914C294.234 274.914 292.991 275.411 292.052 276.405C291.113 277.381 290.644 278.78 290.644 280.602V288.831H287.662Z" fill="black"/>
<path d="M306.254 297.446C304.984 297.446 303.824 297.262 302.775 296.894C301.744 296.526 300.823 296.02 300.013 295.375L300.842 292.007C301.394 292.798 302.13 293.442 303.051 293.939C303.971 294.437 305.03 294.685 306.226 294.685C308.086 294.685 309.586 294.124 310.727 293.001C311.887 291.878 312.467 290.433 312.467 288.665V286.65C311.731 287.386 310.856 287.975 309.844 288.417C308.85 288.84 307.782 289.052 306.641 289.052C305.131 289.052 303.75 288.675 302.499 287.92C301.247 287.147 300.243 286.116 299.489 284.827C298.752 283.538 298.384 282.112 298.384 280.547C298.384 278.982 298.752 277.556 299.489 276.267C300.243 274.978 301.247 273.957 302.499 273.202C303.75 272.429 305.131 272.042 306.641 272.042C307.782 272.042 308.85 272.254 309.844 272.677C310.856 273.101 311.731 273.69 312.467 274.444V272.263H315.228V288.831C315.228 290.635 314.805 292.181 313.958 293.47C313.13 294.759 312.034 295.744 310.672 296.425C309.31 297.106 307.837 297.446 306.254 297.446ZM307.027 286.346C308.076 286.346 309.025 286.088 309.871 285.573C310.737 285.039 311.418 284.339 311.915 283.474C312.43 282.59 312.688 281.615 312.688 280.547C312.688 279.479 312.43 278.513 311.915 277.648C311.418 276.764 310.737 276.064 309.871 275.549C309.025 275.015 308.076 274.748 307.027 274.748C305.978 274.748 305.021 275.015 304.155 275.549C303.309 276.064 302.627 276.764 302.112 277.648C301.615 278.513 301.366 279.479 301.366 280.547C301.366 281.615 301.615 282.59 302.112 283.474C302.627 284.339 303.309 285.039 304.155 285.573C305.021 286.088 305.978 286.346 307.027 286.346Z" fill="black"/>
<path d="M327.609 289.052C326.1 289.052 324.719 288.675 323.467 287.92C322.216 287.147 321.212 286.116 320.458 284.827C319.721 283.538 319.353 282.112 319.353 280.547C319.353 278.982 319.721 277.556 320.458 276.267C321.212 274.978 322.216 273.957 323.467 273.202C324.719 272.429 326.1 272.042 327.609 272.042C328.751 272.042 329.819 272.254 330.813 272.677C331.825 273.101 332.7 273.69 333.436 274.444V272.263H336.197V288.831H333.436V286.65C332.7 287.386 331.825 287.975 330.813 288.417C329.819 288.84 328.751 289.052 327.609 289.052ZM327.996 286.346C329.045 286.346 329.993 286.088 330.84 285.573C331.705 285.039 332.387 284.339 332.884 283.474C333.399 282.59 333.657 281.615 333.657 280.547C333.657 279.479 333.399 278.513 332.884 277.648C332.387 276.764 331.705 276.064 330.84 275.549C329.993 275.015 329.045 274.748 327.996 274.748C326.947 274.748 325.989 275.015 325.124 275.549C324.277 276.064 323.596 276.764 323.081 277.648C322.584 278.513 322.335 279.479 322.335 280.547C322.335 281.615 322.584 282.59 323.081 283.474C323.596 284.339 324.277 285.039 325.124 285.573C325.989 286.088 326.947 286.346 327.996 286.346Z" fill="black"/>
<path d="M341.482 288.831V272.263H344.243V274.941C344.851 273.966 345.633 273.22 346.59 272.705C347.566 272.189 348.615 271.932 349.738 271.932C350.916 271.932 352.002 272.226 352.997 272.815C354.009 273.386 354.828 274.224 355.454 275.328C356.08 276.414 356.393 277.74 356.393 279.304V288.831H353.411V279.719C353.411 278.412 353.015 277.261 352.223 276.267C351.45 275.254 350.355 274.748 348.937 274.748C347.778 274.748 346.737 275.172 345.817 276.018C344.915 276.847 344.464 278.053 344.464 279.636V288.831H341.482Z" fill="black"/>
<path d="M361.363 288.831V272.263H364.346V288.831H361.363Z" fill="black"/>
<path d="M377.256 289.162C375.636 289.162 374.163 288.776 372.838 288.003C371.512 287.229 370.454 286.189 369.662 284.882C368.87 283.575 368.475 282.13 368.475 280.547C368.475 278.964 368.87 277.519 369.662 276.212C370.454 274.905 371.512 273.865 372.838 273.091C374.163 272.318 375.636 271.932 377.256 271.932C378.452 271.932 379.575 272.143 380.625 272.567C381.674 272.99 382.594 273.552 383.386 274.251L382.475 278.007C382.014 277.086 381.315 276.313 380.376 275.687C379.456 275.061 378.406 274.748 377.228 274.748C376.16 274.748 375.185 275.015 374.301 275.549C373.436 276.064 372.746 276.764 372.23 277.648C371.715 278.513 371.457 279.479 371.457 280.547C371.457 281.596 371.715 282.563 372.23 283.446C372.746 284.33 373.436 285.039 374.301 285.573C375.185 286.088 376.16 286.346 377.228 286.346C378.406 286.346 379.456 286.042 380.376 285.435C381.315 284.827 382.014 284.045 382.475 283.087L383.386 286.843C382.594 287.542 381.674 288.104 380.625 288.527C379.575 288.951 378.452 289.162 377.256 289.162Z" fill="black"/>
<path d="M259.211 325.186V300.334H271.471V303.151H262.359V308.452H270.643V311.269H262.359V325.186H259.211Z" fill="black"/>
<path d="M280.662 325.407C279.153 325.407 277.772 325.03 276.52 324.275C275.268 323.502 274.265 322.471 273.51 321.182C272.774 319.893 272.406 318.467 272.406 316.902C272.406 315.337 272.774 313.911 273.51 312.622C274.265 311.333 275.268 310.312 276.52 309.557C277.772 308.784 279.153 308.397 280.662 308.397C281.804 308.397 282.871 308.609 283.865 309.032C284.878 309.456 285.752 310.045 286.489 310.799V308.618H289.25V325.186H286.489V323.005C285.752 323.741 284.878 324.33 283.865 324.772C282.871 325.195 281.804 325.407 280.662 325.407ZM281.049 322.701C282.098 322.701 283.046 322.443 283.893 321.928C284.758 321.394 285.439 320.694 285.936 319.829C286.452 318.945 286.71 317.97 286.71 316.902C286.71 315.834 286.452 314.868 285.936 314.003C285.439 313.119 284.758 312.419 283.893 311.904C283.046 311.37 282.098 311.103 281.049 311.103C279.999 311.103 279.042 311.37 278.177 311.904C277.33 312.419 276.649 313.119 276.134 314.003C275.637 314.868 275.388 315.834 275.388 316.902C275.388 317.97 275.637 318.945 276.134 319.829C276.649 320.694 277.33 321.394 278.177 321.928C279.042 322.443 279.999 322.701 281.049 322.701Z" fill="black"/>
<path d="M294.534 325.186V308.618H297.296V311.655C297.885 310.68 298.667 309.907 299.643 309.336C300.619 308.747 301.778 308.452 303.122 308.452L303.868 311.435C303.518 311.324 303.113 311.269 302.653 311.269C301.106 311.269 299.864 311.766 298.925 312.76C297.986 313.736 297.517 315.135 297.517 316.957V325.186H294.534Z" fill="black"/>
<path d="M306.961 325.186V308.618H309.722V310.993C310.329 310.091 311.093 309.419 312.014 308.977C312.953 308.517 313.937 308.287 314.968 308.287C316.091 308.287 317.122 308.554 318.061 309.087C319 309.603 319.755 310.33 320.325 311.269C320.97 310.275 321.798 309.529 322.811 309.032C323.841 308.535 324.928 308.287 326.069 308.287C327.321 308.287 328.462 308.581 329.493 309.17C330.542 309.759 331.371 310.588 331.978 311.655C332.604 312.705 332.917 313.947 332.917 315.383V325.186H329.935V315.742C329.935 314.233 329.502 313.091 328.637 312.318C327.79 311.527 326.805 311.131 325.682 311.131C324.983 311.131 324.302 311.287 323.639 311.6C322.995 311.913 322.461 312.401 322.037 313.064C321.632 313.726 321.43 314.592 321.43 315.659V325.186H318.448V315.742C318.448 314.693 318.236 313.828 317.813 313.147C317.408 312.465 316.874 311.959 316.211 311.628C315.567 311.278 314.895 311.103 314.195 311.103C313.514 311.103 312.842 311.26 312.179 311.573C311.535 311.886 311.001 312.373 310.578 313.036C310.154 313.699 309.943 314.573 309.943 315.659V325.186H306.961Z" fill="black"/>
<path d="M367.018 263.27C362.822 263.646 362.524 267.255 362.524 268.885C363.396 267.203 363.687 267.379 364.004 267.08C363.741 267.762 363.34 268.272 362.777 268.95C367.566 267.815 367.102 264.503 367.018 263.27Z" fill="black"/>
<g clip-path="url(#clip0_33_27)">
<rect x="547" y="60" width="840" height="438" rx="12" fill="white"/>
<rect x="547" y="16" width="168" height="525" fill="#FF6160"/>
<rect x="715" y="28" width="168" height="525" fill="#61FF8E"/>
<rect x="883" y="28" width="168" height="525" fill="#807070"/>
<rect x="1051" y="28" width="168" height="525" fill="#79AA87"/>
<rect x="1219" y="28" width="168" height="525" fill="#ECECEC"/>
<path d="M910.444 454L911.311 448.8H908.822L909.133 446.933H911.622L912.6 441.067H910.022L910.333 439.2H912.911L913.778 434H915.911L915.044 439.2H919.178L920.044 434H922.178L921.311 439.2H923.844L923.533 441.067H921L920.022 446.933H922.644L922.333 448.8H919.711L918.844 454H916.711L917.578 448.8H913.444L912.578 454H910.444ZM913.644 447.022H917.956L918.978 440.978H914.667L913.644 447.022ZM932.99 454.267C931.73 454.267 930.575 453.97 929.523 453.378C928.471 452.77 927.627 451.956 926.99 450.933C926.367 449.911 926.056 448.763 926.056 447.489C926.056 446.17 926.39 444.993 927.056 443.956C927.738 442.904 928.619 442.104 929.701 441.556C929.271 441.141 928.93 440.667 928.678 440.133C928.427 439.6 928.301 439 928.301 438.333C928.301 437.459 928.508 436.681 928.923 436C929.353 435.304 929.923 434.756 930.634 434.356C931.345 433.941 932.13 433.733 932.99 433.733C933.849 433.733 934.634 433.941 935.345 434.356C936.056 434.756 936.619 435.304 937.034 436C937.464 436.681 937.678 437.459 937.678 438.333C937.678 439 937.553 439.607 937.301 440.156C937.049 440.689 936.708 441.156 936.278 441.556C937.36 442.104 938.234 442.904 938.901 443.956C939.582 444.993 939.923 446.17 939.923 447.489C939.923 448.763 939.604 449.911 938.967 450.933C938.345 451.956 937.508 452.77 936.456 453.378C935.404 453.97 934.249 454.267 932.99 454.267ZM932.99 452C933.834 452 934.597 451.8 935.278 451.4C935.975 450.985 936.523 450.437 936.923 449.756C937.323 449.074 937.523 448.311 937.523 447.467C937.523 446.622 937.323 445.859 936.923 445.178C936.523 444.481 935.975 443.933 935.278 443.533C934.597 443.133 933.834 442.933 932.99 442.933C932.145 442.933 931.382 443.133 930.701 443.533C930.019 443.933 929.471 444.481 929.056 445.178C928.656 445.859 928.456 446.622 928.456 447.467C928.456 448.311 928.656 449.074 929.056 449.756C929.471 450.437 930.019 450.985 930.701 451.4C931.382 451.8 932.145 452 932.99 452ZM932.99 440.978C933.701 440.978 934.301 440.733 934.79 440.244C935.293 439.741 935.545 439.133 935.545 438.422C935.545 437.711 935.293 437.111 934.79 436.622C934.301 436.119 933.701 435.867 932.99 435.867C932.278 435.867 931.671 436.119 931.167 436.622C930.678 437.111 930.434 437.711 930.434 438.422C930.434 439.133 930.678 439.741 931.167 440.244C931.671 440.733 932.278 440.978 932.99 440.978ZM949.646 454.267C948.475 454.267 947.453 453.978 946.579 453.4C945.705 452.807 944.972 452.022 944.379 451.044C943.801 450.052 943.364 448.948 943.068 447.733C942.787 446.504 942.646 445.259 942.646 444C942.646 442.741 942.787 441.504 943.068 440.289C943.364 439.059 943.801 437.956 944.379 436.978C944.972 435.985 945.705 435.2 946.579 434.622C947.453 434.03 948.475 433.733 949.646 433.733C950.816 433.733 951.838 434.03 952.713 434.622C953.587 435.2 954.312 435.985 954.89 436.978C955.483 437.956 955.92 439.059 956.201 440.289C956.498 441.504 956.646 442.741 956.646 444C956.646 445.259 956.498 446.504 956.201 447.733C955.92 448.948 955.483 450.052 954.89 451.044C954.312 452.022 953.587 452.807 952.713 453.4C951.838 453.978 950.816 454.267 949.646 454.267ZM949.646 452C950.431 452 951.105 451.763 951.668 451.289C952.231 450.815 952.69 450.185 953.046 449.4C953.401 448.615 953.668 447.756 953.846 446.822C954.024 445.874 954.113 444.933 954.113 444C954.113 443.067 954.024 442.133 953.846 441.2C953.668 440.252 953.401 439.385 953.046 438.6C952.69 437.815 952.231 437.185 951.668 436.711C951.105 436.237 950.431 436 949.646 436C948.875 436 948.201 436.237 947.624 436.711C947.061 437.185 946.601 437.815 946.246 438.6C945.89 439.385 945.624 440.252 945.446 441.2C945.268 442.133 945.179 443.067 945.179 444C945.179 444.933 945.268 445.874 945.446 446.822C945.624 447.756 945.89 448.615 946.246 449.4C946.601 450.185 947.061 450.815 947.624 451.289C948.201 451.763 948.875 452 949.646 452ZM959.938 454L968.783 436.267H959.227V434H972.538L962.649 454H959.938ZM982.083 454.267C980.913 454.267 979.891 453.978 979.017 453.4C978.143 452.807 977.409 452.022 976.817 451.044C976.239 450.052 975.802 448.948 975.506 447.733C975.224 446.504 975.083 445.259 975.083 444C975.083 442.741 975.224 441.504 975.506 440.289C975.802 439.059 976.239 437.956 976.817 436.978C977.409 435.985 978.143 435.2 979.017 434.622C979.891 434.03 980.913 433.733 982.083 433.733C983.254 433.733 984.276 434.03 985.15 434.622C986.024 435.2 986.75 435.985 987.328 436.978C987.92 437.956 988.357 439.059 988.639 440.289C988.935 441.504 989.083 442.741 989.083 444C989.083 445.259 988.935 446.504 988.639 447.733C988.357 448.948 987.92 450.052 987.328 451.044C986.75 452.022 986.024 452.807 985.15 453.4C984.276 453.978 983.254 454.267 982.083 454.267ZM982.083 452C982.869 452 983.543 451.763 984.106 451.289C984.669 450.815 985.128 450.185 985.483 449.4C985.839 448.615 986.106 447.756 986.283 446.822C986.461 445.874 986.55 444.933 986.55 444C986.55 443.067 986.461 442.133 986.283 441.2C986.106 440.252 985.839 439.385 985.483 438.6C985.128 437.815 984.669 437.185 984.106 436.711C983.543 436.237 982.869 436 982.083 436C981.313 436 980.639 436.237 980.061 436.711C979.498 437.185 979.039 437.815 978.683 438.6C978.328 439.385 978.061 440.252 977.883 441.2C977.706 442.133 977.617 443.067 977.617 444C977.617 444.933 977.706 445.874 977.883 446.822C978.061 447.756 978.328 448.615 978.683 449.4C979.039 450.185 979.498 450.815 980.061 451.289C980.639 451.763 981.313 452 982.083 452ZM992.376 454L1001.22 436.267H991.665V434H1004.98L995.087 454H992.376ZM1014.52 454.267C1013.35 454.267 1012.33 453.978 1011.45 453.4C1010.58 452.807 1009.85 452.022 1009.25 451.044C1008.68 450.052 1008.24 448.948 1007.94 447.733C1007.66 446.504 1007.52 445.259 1007.52 444C1007.52 442.741 1007.66 441.504 1007.94 440.289C1008.24 439.059 1008.68 437.956 1009.25 436.978C1009.85 435.985 1010.58 435.2 1011.45 434.622C1012.33 434.03 1013.35 433.733 1014.52 433.733C1015.69 433.733 1016.71 434.03 1017.59 434.622C1018.46 435.2 1019.19 435.985 1019.77 436.978C1020.36 437.956 1020.79 439.059 1021.08 440.289C1021.37 441.504 1021.52 442.741 1021.52 444C1021.52 445.259 1021.37 446.504 1021.08 447.733C1020.79 448.948 1020.36 450.052 1019.77 451.044C1019.19 452.022 1018.46 452.807 1017.59 453.4C1016.71 453.978 1015.69 454.267 1014.52 454.267ZM1014.52 452C1015.31 452 1015.98 451.763 1016.54 451.289C1017.11 450.815 1017.57 450.185 1017.92 449.4C1018.28 448.615 1018.54 447.756 1018.72 446.822C1018.9 445.874 1018.99 444.933 1018.99 444C1018.99 443.067 1018.9 442.133 1018.72 441.2C1018.54 440.252 1018.28 439.385 1017.92 438.6C1017.57 437.815 1017.11 437.185 1016.54 436.711C1015.98 436.237 1015.31 436 1014.52 436C1013.75 436 1013.08 436.237 1012.5 436.711C1011.94 437.185 1011.48 437.815 1011.12 438.6C1010.77 439.385 1010.5 440.252 1010.32 441.2C1010.14 442.133 1010.05 443.067 1010.05 444C1010.05 444.933 1010.14 445.874 1010.32 446.822C1010.5 447.756 1010.77 448.615 1011.12 449.4C1011.48 450.185 1011.94 450.815 1012.5 451.289C1013.08 451.763 1013.75 452 1014.52 452Z" fill="white"/>
<path d="M1076.44 454L1077.31 448.8H1074.82L1075.13 446.933H1077.62L1078.6 441.067H1076.02L1076.33 439.2H1078.91L1079.78 434H1081.91L1081.04 439.2H1085.18L1086.04 434H1088.18L1087.31 439.2H1089.84L1089.53 441.067H1087L1086.02 446.933H1088.64L1088.33 448.8H1085.71L1084.84 454H1082.71L1083.58 448.8H1079.44L1078.58 454H1076.44ZM1079.64 447.022H1083.96L1084.98 440.978H1080.67L1079.64 447.022ZM1093.5 454L1102.35 436.267H1092.79V434H1106.1L1096.21 454H1093.5ZM1113.45 454L1117.73 446.111C1117.33 446.407 1116.92 446.615 1116.49 446.733C1116.06 446.837 1115.63 446.889 1115.2 446.889C1114.05 446.889 1112.98 446.607 1112 446.044C1111.04 445.467 1110.26 444.689 1109.67 443.711C1109.08 442.733 1108.78 441.622 1108.78 440.378C1108.78 439.119 1109.08 437.993 1109.69 437C1110.31 435.993 1111.13 435.2 1112.16 434.622C1113.19 434.03 1114.33 433.733 1115.58 433.733C1116.84 433.733 1117.98 434.03 1119 434.622C1120.02 435.2 1120.84 435.993 1121.45 437C1122.07 437.993 1122.38 439.119 1122.38 440.378C1122.38 440.956 1122.31 441.511 1122.16 442.044C1122.02 442.578 1121.83 443.089 1121.58 443.578L1116.2 454H1113.45ZM1115.58 444.8C1116.39 444.8 1117.13 444.607 1117.8 444.222C1118.47 443.822 1118.99 443.289 1119.38 442.622C1119.78 441.956 1119.98 441.215 1119.98 440.4C1119.98 439.585 1119.78 438.844 1119.38 438.178C1118.99 437.511 1118.47 436.985 1117.8 436.6C1117.13 436.2 1116.39 436 1115.58 436C1114.76 436 1114.02 436.2 1113.36 436.6C1112.69 436.985 1112.16 437.511 1111.76 438.178C1111.37 438.844 1111.18 439.585 1111.18 440.4C1111.18 441.215 1111.37 441.956 1111.76 442.622C1112.16 443.289 1112.69 443.822 1113.36 444.222C1114.02 444.607 1114.76 444.8 1115.58 444.8ZM1124.37 454L1132.84 433.333H1132.88L1141.35 454H1138.66L1136.3 448.067H1129.3L1126.92 454H1124.37ZM1130.15 445.956H1135.46L1133.88 442C1133.69 441.496 1133.5 441 1133.32 440.511C1133.15 440.022 1132.97 439.437 1132.79 438.756C1132.61 439.437 1132.44 440.022 1132.28 440.511C1132.12 440.985 1131.93 441.481 1131.72 442L1130.15 445.956ZM1142.15 454L1150.62 433.333H1150.66L1159.13 454H1156.44L1154.08 448.067H1147.08L1144.71 454H1142.15ZM1147.93 445.956H1153.24L1151.66 442C1151.47 441.496 1151.28 441 1151.11 440.511C1150.93 440.022 1150.75 439.437 1150.57 438.756C1150.39 439.437 1150.22 440.022 1150.06 440.511C1149.9 440.985 1149.71 441.481 1149.51 442L1147.93 445.956ZM1167.86 454.267C1166.61 454.267 1165.45 453.97 1164.4 453.378C1163.35 452.77 1162.5 451.956 1161.86 450.933C1161.24 449.911 1160.93 448.763 1160.93 447.489C1160.93 446.17 1161.26 444.993 1161.93 443.956C1162.61 442.904 1163.49 442.104 1164.58 441.556C1164.15 441.141 1163.81 440.667 1163.55 440.133C1163.3 439.6 1163.18 439 1163.18 438.333C1163.18 437.459 1163.38 436.681 1163.8 436C1164.23 435.304 1164.8 434.756 1165.51 434.356C1166.22 433.941 1167.01 433.733 1167.86 433.733C1168.72 433.733 1169.51 433.941 1170.22 434.356C1170.93 434.756 1171.49 435.304 1171.91 436C1172.34 436.681 1172.55 437.459 1172.55 438.333C1172.55 439 1172.43 439.607 1172.18 440.156C1171.92 440.689 1171.58 441.156 1171.15 441.556C1172.23 442.104 1173.11 442.904 1173.78 443.956C1174.46 444.993 1174.8 446.17 1174.8 447.489C1174.8 448.763 1174.48 449.911 1173.84 450.933C1173.22 451.956 1172.38 452.77 1171.33 453.378C1170.28 453.97 1169.12 454.267 1167.86 454.267ZM1167.86 452C1168.71 452 1169.47 451.8 1170.15 451.4C1170.85 450.985 1171.4 450.437 1171.8 449.756C1172.2 449.074 1172.4 448.311 1172.4 447.467C1172.4 446.622 1172.2 445.859 1171.8 445.178C1171.4 444.481 1170.85 443.933 1170.15 443.533C1169.47 443.133 1168.71 442.933 1167.86 442.933C1167.02 442.933 1166.26 443.133 1165.58 443.533C1164.89 443.933 1164.35 444.481 1163.93 445.178C1163.53 445.859 1163.33 446.622 1163.33 447.467C1163.33 448.311 1163.53 449.074 1163.93 449.756C1164.35 450.437 1164.89 450.985 1165.58 451.4C1166.26 451.8 1167.02 452 1167.86 452ZM1167.86 440.978C1168.58 440.978 1169.18 440.733 1169.66 440.244C1170.17 439.741 1170.42 439.133 1170.42 438.422C1170.42 437.711 1170.17 437.111 1169.66 436.622C1169.18 436.119 1168.58 435.867 1167.86 435.867C1167.15 435.867 1166.55 436.119 1166.04 436.622C1165.55 437.111 1165.31 437.711 1165.31 438.422C1165.31 439.133 1165.55 439.741 1166.04 440.244C1166.55 440.733 1167.15 440.978 1167.86 440.978ZM1179.03 454L1187.88 436.267H1178.32V434H1191.63L1181.74 454H1179.03Z" fill="white"/>
<path d="M1246.44 454L1247.31 448.8H1244.82L1245.13 446.933H1247.62L1248.6 441.067H1246.02L1246.33 439.2H1248.91L1249.78 434H1251.91L1251.04 439.2H1255.18L1256.04 434H1258.18L1257.31 439.2H1259.84L1259.53 441.067H1257L1256.02 446.933H1258.64L1258.33 448.8H1255.71L1254.84 454H1252.71L1253.58 448.8H1249.44L1248.58 454H1246.44ZM1249.64 447.022H1253.96L1254.98 440.978H1250.67L1249.64 447.022ZM1263.46 454V434H1273.32V436.267H1265.99V440.533H1271.77V442.8H1265.99V451.733H1273.32V454H1263.46ZM1285.78 454.4C1284.34 454.4 1282.99 454.133 1281.71 453.6C1280.45 453.052 1279.34 452.304 1278.38 451.356C1277.43 450.407 1276.68 449.304 1276.13 448.044C1275.6 446.785 1275.33 445.437 1275.33 444C1275.33 442.563 1275.6 441.215 1276.13 439.956C1276.68 438.696 1277.43 437.593 1278.38 436.644C1279.34 435.696 1280.45 434.956 1281.71 434.422C1282.99 433.874 1284.34 433.6 1285.78 433.6C1287.2 433.6 1288.53 433.867 1289.78 434.4C1291.02 434.919 1292.12 435.637 1293.07 436.556L1292.33 439.622C1291.65 438.526 1290.73 437.652 1289.58 437C1288.44 436.333 1287.17 436 1285.78 436C1284.31 436 1282.99 436.363 1281.8 437.089C1280.63 437.8 1279.7 438.763 1279 439.978C1278.3 441.178 1277.96 442.519 1277.96 444C1277.96 445.467 1278.3 446.807 1279 448.022C1279.7 449.237 1280.63 450.207 1281.8 450.933C1282.99 451.644 1284.31 452 1285.78 452C1287.19 452 1288.46 451.667 1289.6 451C1290.74 450.333 1291.65 449.459 1292.33 448.378L1293.07 451.444C1292.12 452.348 1291.02 453.067 1289.78 453.6C1288.53 454.133 1287.2 454.4 1285.78 454.4ZM1296.8 454V434H1306.67V436.267H1299.33V440.533H1305.11V442.8H1299.33V451.733H1306.67V454H1296.8ZM1319.12 454.4C1317.68 454.4 1316.33 454.133 1315.05 453.6C1313.8 453.052 1312.68 452.304 1311.72 451.356C1310.77 450.407 1310.03 449.304 1309.48 448.044C1308.94 446.785 1308.68 445.437 1308.68 444C1308.68 442.563 1308.94 441.215 1309.48 439.956C1310.03 438.696 1310.77 437.593 1311.72 436.644C1312.68 435.696 1313.8 434.956 1315.05 434.422C1316.33 433.874 1317.68 433.6 1319.12 433.6C1320.54 433.6 1321.88 433.867 1323.12 434.4C1324.37 434.919 1325.46 435.637 1326.41 436.556L1325.68 439.622C1325 438.526 1324.08 437.652 1322.92 437C1321.78 436.333 1320.51 436 1319.12 436C1317.65 436 1316.33 436.363 1315.14 437.089C1313.97 437.8 1313.04 438.763 1312.34 439.978C1311.65 441.178 1311.3 442.519 1311.3 444C1311.3 445.467 1311.65 446.807 1312.34 448.022C1313.04 449.237 1313.97 450.207 1315.14 450.933C1316.33 451.644 1317.65 452 1319.12 452C1320.53 452 1321.8 451.667 1322.94 451C1324.08 450.333 1325 449.459 1325.68 448.378L1326.41 451.444C1325.46 452.348 1324.37 453.067 1323.12 453.6C1321.88 454.133 1320.54 454.4 1319.12 454.4ZM1330.14 454V434H1340.01V436.267H1332.68V440.533H1338.45V442.8H1332.68V451.733H1340.01V454H1330.14ZM1352.47 454.4C1351.03 454.4 1349.67 454.133 1348.4 453.6C1347.14 453.052 1346.03 452.304 1345.07 451.356C1344.12 450.407 1343.37 449.304 1342.82 448.044C1342.29 446.785 1342.02 445.437 1342.02 444C1342.02 442.563 1342.29 441.215 1342.82 439.956C1343.37 438.696 1344.12 437.593 1345.07 436.644C1346.03 435.696 1347.14 434.956 1348.4 434.422C1349.67 433.874 1351.03 433.6 1352.47 433.6C1353.89 433.6 1355.22 433.867 1356.47 434.4C1357.71 434.919 1358.81 435.637 1359.75 436.556L1359.02 439.622C1358.34 438.526 1357.42 437.652 1356.27 437C1355.12 436.333 1353.86 436 1352.47 436C1351 436 1349.67 436.363 1348.49 437.089C1347.32 437.8 1346.38 438.763 1345.69 439.978C1344.99 441.178 1344.64 442.519 1344.64 444C1344.64 445.467 1344.99 446.807 1345.69 448.022C1346.38 449.237 1347.32 450.207 1348.49 450.933C1349.67 451.644 1351 452 1352.47 452C1353.87 452 1355.15 451.667 1356.29 451C1357.43 450.333 1358.34 449.459 1359.02 448.378L1359.75 451.444C1358.81 452.348 1357.71 453.067 1356.47 453.6C1355.22 454.133 1353.89 454.4 1352.47 454.4Z" fill="black"/>
<path d="M742.444 454L743.311 448.8H740.822L741.133 446.933H743.622L744.6 441.067H742.022L742.333 439.2H744.911L745.778 434H747.911L747.044 439.2H751.178L752.044 434H754.178L753.311 439.2H755.844L755.533 441.067H753L752.022 446.933H754.644L754.333 448.8H751.711L750.844 454H748.711L749.578 448.8H745.444L744.578 454H742.444ZM745.644 447.022H749.956L750.978 440.978H746.667L745.644 447.022ZM765.123 454.267C763.819 454.267 762.634 453.97 761.567 453.378C760.516 452.77 759.678 451.956 759.056 450.933C758.434 449.911 758.123 448.763 758.123 447.489C758.123 446.911 758.197 446.348 758.345 445.8C758.493 445.237 758.693 444.711 758.945 444.222L764.301 434H767.056L762.923 441.622C763.338 441.296 763.76 441.081 764.19 440.978C764.619 440.859 765.056 440.8 765.501 440.8C766.716 440.8 767.819 441.089 768.812 441.667C769.819 442.244 770.619 443.037 771.212 444.044C771.819 445.052 772.123 446.193 772.123 447.467C772.123 448.741 771.812 449.896 771.19 450.933C770.567 451.956 769.723 452.77 768.656 453.378C767.604 453.97 766.427 454.267 765.123 454.267ZM765.145 452C766.004 452 766.775 451.8 767.456 451.4C768.153 450.985 768.701 450.437 769.101 449.756C769.516 449.059 769.723 448.289 769.723 447.444C769.723 446.615 769.516 445.859 769.101 445.178C768.701 444.481 768.153 443.926 767.456 443.511C766.775 443.096 766.004 442.889 765.145 442.889C764.301 442.889 763.53 443.096 762.834 443.511C762.138 443.926 761.582 444.481 761.167 445.178C760.767 445.859 760.567 446.615 760.567 447.444C760.567 448.289 760.767 449.059 761.167 449.756C761.582 450.437 762.138 450.985 762.834 451.4C763.53 451.8 764.301 452 765.145 452ZM776.913 454V452H781.535V437.156L776.913 439.511V437.111L783.979 433.556V452H787.713V454H776.913ZM792.769 454V434H802.635V436.267H795.302V440.533H801.969V442.8H795.302V454H792.769ZM806.112 454V434H815.979V436.267H808.646V440.533H815.312V442.8H808.646V454H806.112ZM824.99 454.267C823.73 454.267 822.575 453.97 821.523 453.378C820.471 452.77 819.627 451.956 818.99 450.933C818.367 449.911 818.056 448.763 818.056 447.489C818.056 446.17 818.39 444.993 819.056 443.956C819.738 442.904 820.619 442.104 821.701 441.556C821.271 441.141 820.93 440.667 820.678 440.133C820.427 439.6 820.301 439 820.301 438.333C820.301 437.459 820.508 436.681 820.923 436C821.353 435.304 821.923 434.756 822.634 434.356C823.345 433.941 824.13 433.733 824.99 433.733C825.849 433.733 826.634 433.941 827.345 434.356C828.056 434.756 828.619 435.304 829.034 436C829.464 436.681 829.678 437.459 829.678 438.333C829.678 439 829.553 439.607 829.301 440.156C829.049 440.689 828.708 441.156 828.278 441.556C829.36 442.104 830.234 442.904 830.901 443.956C831.582 444.993 831.923 446.17 831.923 447.489C831.923 448.763 831.604 449.911 830.967 450.933C830.345 451.956 829.508 452.77 828.456 453.378C827.404 453.97 826.249 454.267 824.99 454.267ZM824.99 452C825.834 452 826.597 451.8 827.278 451.4C827.975 450.985 828.523 450.437 828.923 449.756C829.323 449.074 829.523 448.311 829.523 447.467C829.523 446.622 829.323 445.859 828.923 445.178C828.523 444.481 827.975 443.933 827.278 443.533C826.597 443.133 825.834 442.933 824.99 442.933C824.145 442.933 823.382 443.133 822.701 443.533C822.019 443.933 821.471 444.481 821.056 445.178C820.656 445.859 820.456 446.622 820.456 447.467C820.456 448.311 820.656 449.074 821.056 449.756C821.471 450.437 822.019 450.985 822.701 451.4C823.382 451.8 824.145 452 824.99 452ZM824.99 440.978C825.701 440.978 826.301 440.733 826.79 440.244C827.293 439.741 827.545 439.133 827.545 438.422C827.545 437.711 827.293 437.111 826.79 436.622C826.301 436.119 825.701 435.867 824.99 435.867C824.278 435.867 823.671 436.119 823.167 436.622C822.678 437.111 822.434 437.711 822.434 438.422C822.434 439.133 822.678 439.741 823.167 440.244C823.671 440.733 824.278 440.978 824.99 440.978ZM836.112 454V434H845.979V436.267H838.646V440.533H844.424V442.8H838.646V451.733H845.979V454H836.112Z" fill="black"/>
<path d="M574.444 454L575.311 448.8H572.822L573.133 446.933H575.622L576.6 441.067H574.022L574.333 439.2H576.911L577.778 434H579.911L579.044 439.2H583.178L584.044 434H586.178L585.311 439.2H587.844L587.533 441.067H585L584.022 446.933H586.644L586.333 448.8H583.711L582.844 454H580.711L581.578 448.8H577.444L576.578 454H574.444ZM577.644 447.022H581.956L582.978 440.978H578.667L577.644 447.022ZM591.456 454V434H601.323V436.267H593.99V440.533H600.656V442.8H593.99V454H591.456ZM604.8 454V434H614.667V436.267H607.333V440.533H614V442.8H607.333V454H604.8ZM623.81 454.267C622.507 454.267 621.322 453.97 620.255 453.378C619.203 452.77 618.366 451.956 617.744 450.933C617.122 449.911 616.81 448.763 616.81 447.489C616.81 446.911 616.884 446.348 617.033 445.8C617.181 445.237 617.381 444.711 617.633 444.222L622.988 434H625.744L621.61 441.622C622.025 441.296 622.447 441.081 622.877 440.978C623.307 440.859 623.744 440.8 624.188 440.8C625.403 440.8 626.507 441.089 627.499 441.667C628.507 442.244 629.307 443.037 629.899 444.044C630.507 445.052 630.81 446.193 630.81 447.467C630.81 448.741 630.499 449.896 629.877 450.933C629.255 451.956 628.41 452.77 627.344 453.378C626.292 453.97 625.114 454.267 623.81 454.267ZM623.833 452C624.692 452 625.462 451.8 626.144 451.4C626.84 450.985 627.388 450.437 627.788 449.756C628.203 449.059 628.41 448.289 628.41 447.444C628.41 446.615 628.203 445.859 627.788 445.178C627.388 444.481 626.84 443.926 626.144 443.511C625.462 443.096 624.692 442.889 623.833 442.889C622.988 442.889 622.218 443.096 621.522 443.511C620.825 443.926 620.27 444.481 619.855 445.178C619.455 445.859 619.255 446.615 619.255 447.444C619.255 448.289 619.455 449.059 619.855 449.756C620.27 450.437 620.825 450.985 621.522 451.4C622.218 451.8 622.988 452 623.833 452ZM635.6 454V452H640.222V437.156L635.6 439.511V437.111L642.667 433.556V452H646.4V454H635.6ZM657.123 454.267C655.819 454.267 654.634 453.97 653.567 453.378C652.516 452.77 651.678 451.956 651.056 450.933C650.434 449.911 650.123 448.763 650.123 447.489C650.123 446.911 650.197 446.348 650.345 445.8C650.493 445.237 650.693 444.711 650.945 444.222L656.301 434H659.056L654.923 441.622C655.338 441.296 655.76 441.081 656.19 440.978C656.619 440.859 657.056 440.8 657.501 440.8C658.716 440.8 659.819 441.089 660.812 441.667C661.819 442.244 662.619 443.037 663.212 444.044C663.819 445.052 664.123 446.193 664.123 447.467C664.123 448.741 663.812 449.896 663.19 450.933C662.567 451.956 661.723 452.77 660.656 453.378C659.604 453.97 658.427 454.267 657.123 454.267ZM657.145 452C658.004 452 658.775 451.8 659.456 451.4C660.153 450.985 660.701 450.437 661.101 449.756C661.516 449.059 661.723 448.289 661.723 447.444C661.723 446.615 661.516 445.859 661.101 445.178C660.701 444.481 660.153 443.926 659.456 443.511C658.775 443.096 658.004 442.889 657.145 442.889C656.301 442.889 655.53 443.096 654.834 443.511C654.138 443.926 653.582 444.481 653.167 445.178C652.767 445.859 652.567 446.615 652.567 447.444C652.567 448.289 652.767 449.059 653.167 449.756C653.582 450.437 654.138 450.985 654.834 451.4C655.53 451.8 656.301 452 657.145 452ZM673.646 454.267C672.475 454.267 671.453 453.978 670.579 453.4C669.705 452.807 668.972 452.022 668.379 451.044C667.801 450.052 667.364 448.948 667.068 447.733C666.787 446.504 666.646 445.259 666.646 444C666.646 442.741 666.787 441.504 667.068 440.289C667.364 439.059 667.801 437.956 668.379 436.978C668.972 435.985 669.705 435.2 670.579 434.622C671.453 434.03 672.475 433.733 673.646 433.733C674.816 433.733 675.838 434.03 676.713 434.622C677.587 435.2 678.312 435.985 678.89 436.978C679.483 437.956 679.92 439.059 680.201 440.289C680.498 441.504 680.646 442.741 680.646 444C680.646 445.259 680.498 446.504 680.201 447.733C679.92 448.948 679.483 450.052 678.89 451.044C678.312 452.022 677.587 452.807 676.713 453.4C675.838 453.978 674.816 454.267 673.646 454.267ZM673.646 452C674.431 452 675.105 451.763 675.668 451.289C676.231 450.815 676.69 450.185 677.046 449.4C677.401 448.615 677.668 447.756 677.846 446.822C678.024 445.874 678.113 444.933 678.113 444C678.113 443.067 678.024 442.133 677.846 441.2C677.668 440.252 677.401 439.385 677.046 438.6C676.69 437.815 676.231 437.185 675.668 436.711C675.105 436.237 674.431 436 673.646 436C672.875 436 672.201 436.237 671.624 436.711C671.061 437.185 670.601 437.815 670.246 438.6C669.89 439.385 669.624 440.252 669.446 441.2C669.268 442.133 669.179 443.067 669.179 444C669.179 444.933 669.268 445.874 669.446 446.822C669.624 447.756 669.89 448.615 670.246 449.4C670.601 450.185 671.061 450.815 671.624 451.289C672.201 451.763 672.875 452 673.646 452Z" fill="white"/>
</g>
<rect x="56" y="538" width="546" height="774" rx="12" fill="#ECECEC"/>
<g filter="url(#filter1_d_33_27)">
<path d="M272.921 1066.95C285.173 1033.37 280.26 992.385 276.271 976.09C308.337 966.214 379.648 1000.78 388.263 1032.88C395.155 1058.55 367.662 1083.74 356.033 1092.17C334.59 1107.71 260.669 1100.53 272.921 1066.95Z" fill="#FF6160"/>
<path d="M236.131 973.267C247.584 962.072 306.543 967.047 334.59 970.934C285.562 945.02 259.741 941.651 252.96 943.206C235.478 946.73 234.457 964.715 236.131 973.267Z" fill="#FF6160"/>
<path d="M339.47 927.694C339.47 933.884 334.607 938.902 328.607 938.902C322.608 938.902 317.744 933.884 317.744 927.694C317.744 921.504 322.608 916.486 328.607 916.486C334.607 916.486 339.47 921.504 339.47 927.694Z" fill="#FF6160"/>
<path d="M224.487 860.902C210.493 901.382 241.98 910.427 259.473 909.89C268.256 912.738 280.176 898.81 285.038 891.49C315.205 851.381 382.873 879.859 412.937 899.111C459.897 859.965 427.448 805.546 405.353 783.229C408.102 805.919 390.879 820.615 381.925 825.127C387.423 779.491 357.351 756.694 341.628 751C350.375 787.87 331.112 809.765 320.387 816.103C322.636 773.303 291.544 761.743 275.717 761.313C279.466 798.441 267.699 823.623 261.348 831.573C256.1 814.814 238.544 814.277 230.423 816.103C229.485 827.383 224.487 858.968 224.487 860.902Z" fill="#FF6160"/>
</g>
<rect x="642" y="538" width="747" height="774" rx="12" fill="#79AA87"/>
<path d="M850.625 786V748.5H869.875V753.75H856.625V760.75H868.625V766H856.625V786H850.625ZM884.118 786.667C881.674 786.667 879.438 786.083 877.41 784.917C875.382 783.722 873.771 782.125 872.577 780.125C871.382 778.125 870.785 775.917 870.785 773.5C870.785 771.056 871.382 768.847 872.577 766.875C873.771 764.875 875.382 763.292 877.41 762.125C879.438 760.931 881.674 760.333 884.118 760.333C886.591 760.333 888.827 760.931 890.827 762.125C892.855 763.292 894.466 764.875 895.66 766.875C896.855 768.847 897.452 771.056 897.452 773.5C897.452 775.917 896.855 778.125 895.66 780.125C894.466 782.125 892.855 783.722 890.827 784.917C888.827 786.083 886.591 786.667 884.118 786.667ZM884.118 781.292C885.535 781.292 886.827 780.944 887.993 780.25C889.16 779.528 890.077 778.583 890.743 777.417C891.438 776.25 891.785 774.944 891.785 773.5C891.785 772.056 891.438 770.75 890.743 769.583C890.077 768.417 889.16 767.486 887.993 766.792C886.827 766.069 885.535 765.708 884.118 765.708C882.702 765.708 881.41 766.069 880.243 766.792C879.077 767.486 878.146 768.417 877.452 769.583C876.785 770.75 876.452 772.056 876.452 773.5C876.452 774.944 876.785 776.25 877.452 777.417C878.146 778.583 879.063 779.528 880.202 780.25C881.368 780.944 882.674 781.292 884.118 781.292ZM902.695 786V761H908.029V764.375C908.945 763.069 910.084 762.069 911.445 761.375C912.834 760.681 914.334 760.333 915.945 760.333C917.723 760.333 919.376 760.764 920.904 761.625C922.431 762.486 923.668 763.736 924.612 765.375C925.556 767.014 926.029 769 926.029 771.333V786H920.154V772.125C920.154 770.458 919.64 768.972 918.612 767.667C917.612 766.361 916.195 765.708 914.362 765.708C912.862 765.708 911.515 766.236 910.32 767.292C909.154 768.347 908.57 769.917 908.57 772V786H902.695ZM934.382 786V765.75H929.215V761H934.507V752.667H940.132V761H945.715V765.75H940.257V786H934.382ZM957.548 786.667C956.048 786.667 954.493 786.417 952.882 785.917C951.298 785.389 950.007 784.597 949.007 783.542L950.507 777.667C951.312 778.861 952.382 779.861 953.715 780.667C955.048 781.472 956.437 781.875 957.882 781.875C959.076 781.875 959.951 781.611 960.507 781.083C961.062 780.556 961.34 779.917 961.34 779.167C961.34 778.333 961.048 777.722 960.465 777.333C959.882 776.917 959.326 776.611 958.798 776.417L955.34 775.125C954.645 774.847 953.826 774.458 952.882 773.958C951.965 773.431 951.159 772.694 950.465 771.75C949.77 770.806 949.423 769.569 949.423 768.042C949.423 766.653 949.757 765.375 950.423 764.208C951.118 763.042 952.104 762.111 953.382 761.417C954.659 760.694 956.187 760.333 957.965 760.333C959.493 760.333 960.979 760.597 962.423 761.125C963.895 761.653 965.048 762.361 965.882 763.25L964.423 769.042C963.618 767.819 962.604 766.861 961.382 766.167C960.187 765.472 958.993 765.125 957.798 765.125C956.77 765.125 955.993 765.375 955.465 765.875C954.937 766.375 954.673 766.958 954.673 767.625C954.673 768.125 954.854 768.597 955.215 769.042C955.576 769.458 956.159 769.819 956.965 770.125L960.257 771.375C961.034 771.653 961.909 772.056 962.882 772.583C963.882 773.111 964.743 773.861 965.465 774.833C966.187 775.806 966.548 777.125 966.548 778.792C966.548 781.125 965.701 783.028 964.007 784.5C962.34 785.944 960.187 786.667 957.548 786.667Z" fill="white"/>
<path d="M847.25 962L879.667 884.417H879.833L912.25 962H899.667L892.5 944.25H866.583L859.333 962H847.25ZM870.667 934.25H888.333L883.833 923C883 921.056 882.222 919.139 881.5 917.25C880.833 915.361 880.167 913.139 879.5 910.583C878.833 913.139 878.167 915.361 877.5 917.25C876.833 919.083 876.083 921 875.25 923L870.667 934.25ZM923.622 962V921.5H913.289V912H923.872V898.5C923.872 892.778 925.539 888.444 928.872 885.5C932.206 882.5 936.261 881 941.039 881C942.817 881 944.567 881.222 946.289 881.667C948.067 882.056 949.678 882.694 951.122 883.583L948.622 893.833C946.678 891.556 944.372 890.417 941.706 890.417C940.095 890.417 938.595 890.972 937.206 892.083C935.817 893.194 935.122 895.306 935.122 898.417V912H946.289V921.5H935.372V962H923.622ZM974.745 963C970.189 963 966.023 961.833 962.245 959.5C958.467 957.167 955.439 954.028 953.161 950.083C950.939 946.139 949.828 941.778 949.828 937C949.828 932.222 950.939 927.861 953.161 923.917C955.439 919.972 958.467 916.833 962.245 914.5C966.023 912.167 970.189 911 974.745 911C978.078 911 981.161 911.611 983.995 912.833C986.884 914 989.356 915.667 991.411 917.833V912H1001.83V962H991.411V956.167C989.356 958.278 986.884 959.944 983.995 961.167C981.161 962.389 978.078 963 974.745 963ZM976.245 952.5C979.023 952.5 981.55 951.806 983.828 950.417C986.161 949.028 987.995 947.167 989.328 944.833C990.717 942.5 991.411 939.889 991.411 937C991.411 934.167 990.717 931.583 989.328 929.25C987.995 926.861 986.189 924.972 983.911 923.583C981.634 922.194 979.078 921.5 976.245 921.5C973.467 921.5 970.911 922.194 968.578 923.583C966.3 924.972 964.467 926.833 963.078 929.167C961.745 931.5 961.078 934.111 961.078 937C961.078 939.833 961.745 942.444 963.078 944.833C964.467 947.167 966.3 949.028 968.578 950.417C970.856 951.806 973.411 952.5 976.245 952.5ZM1039.04 963.333C1034.09 963.333 1029.59 962.167 1025.54 959.833C1021.48 957.444 1018.26 954.25 1015.87 950.25C1013.48 946.25 1012.29 941.833 1012.29 937C1012.29 932.111 1013.48 927.694 1015.87 923.75C1018.26 919.75 1021.48 916.583 1025.54 914.25C1029.59 911.861 1034.09 910.667 1039.04 910.667C1042.54 910.667 1045.84 911.278 1048.96 912.5C1052.12 913.667 1054.9 915.333 1057.29 917.5L1054.04 930.583C1052.65 928.083 1050.68 925.944 1048.12 924.167C1045.57 922.333 1042.62 921.417 1039.29 921.417C1036.4 921.417 1033.76 922.139 1031.37 923.583C1029.04 924.972 1027.18 926.833 1025.79 929.167C1024.46 931.5 1023.79 934.111 1023.79 937C1023.79 939.833 1024.46 942.444 1025.79 944.833C1027.18 947.167 1029.04 949.056 1031.37 950.5C1033.76 951.889 1036.4 952.583 1039.29 952.583C1042.62 952.583 1045.57 951.694 1048.12 949.917C1050.68 948.139 1052.65 945.972 1054.04 943.417L1057.29 956.5C1054.9 958.667 1052.12 960.361 1048.96 961.583C1045.84 962.75 1042.54 963.333 1039.04 963.333ZM1088.42 963C1083.86 963 1079.69 961.833 1075.92 959.5C1072.14 957.167 1069.11 954.028 1066.83 950.083C1064.61 946.139 1063.5 941.778 1063.5 937C1063.5 932.222 1064.61 927.861 1066.83 923.917C1069.11 919.972 1072.14 916.833 1075.92 914.5C1079.69 912.167 1083.86 911 1088.42 911C1091.75 911 1094.83 911.611 1097.67 912.833C1100.56 914 1103.03 915.667 1105.08 917.833V912H1115.5V962H1105.08V956.167C1103.03 958.278 1100.56 959.944 1097.67 961.167C1094.83 962.389 1091.75 963 1088.42 963ZM1089.92 952.5C1092.69 952.5 1095.22 951.806 1097.5 950.417C1099.83 949.028 1101.67 947.167 1103 944.833C1104.39 942.5 1105.08 939.889 1105.08 937C1105.08 934.167 1104.39 931.583 1103 929.25C1101.67 926.861 1099.86 924.972 1097.58 923.583C1095.31 922.194 1092.75 921.5 1089.92 921.5C1087.14 921.5 1084.58 922.194 1082.25 923.583C1079.97 924.972 1078.14 926.833 1076.75 929.167C1075.42 931.5 1074.75 934.111 1074.75 937C1074.75 939.833 1075.42 942.444 1076.75 944.833C1078.14 947.167 1079.97 949.028 1082.25 950.417C1084.53 951.806 1087.08 952.5 1089.92 952.5ZM1150.96 963C1146.35 963 1142.16 961.833 1138.38 959.5C1134.6 957.167 1131.57 954.028 1129.29 950.083C1127.07 946.139 1125.96 941.778 1125.96 937C1125.96 932.222 1127.07 927.861 1129.29 923.917C1131.57 919.972 1134.6 916.833 1138.38 914.5C1142.16 912.167 1146.35 911 1150.96 911C1153.91 911 1156.66 911.5 1159.21 912.5C1161.82 913.444 1164.16 914.778 1166.21 916.5V882H1177.96V962H1167.54V956.25C1165.49 958.361 1163.02 960.028 1160.13 961.25C1157.29 962.417 1154.24 963 1150.96 963ZM1152.38 952.5C1155.16 952.5 1157.68 951.806 1159.96 950.417C1162.29 949.028 1164.13 947.167 1165.46 944.833C1166.85 942.5 1167.54 939.889 1167.54 937C1167.54 934.167 1166.85 931.583 1165.46 929.25C1164.13 926.861 1162.32 924.972 1160.04 923.583C1157.77 922.194 1155.21 921.5 1152.38 921.5C1149.6 921.5 1147.04 922.194 1144.71 923.583C1142.43 924.972 1140.6 926.833 1139.21 929.167C1137.88 931.5 1137.21 934.111 1137.21 937C1137.21 939.833 1137.88 942.444 1139.21 944.833C1140.6 947.167 1142.43 949.028 1144.71 950.417C1146.99 951.806 1149.54 952.5 1152.38 952.5Z" fill="white"/>
<path d="M870.08 1050.71H867.77L850.97 1096H846.63L864.83 1047H872.95L891.08 1096H886.81L870.08 1050.71ZM854.68 1078.78H883.24V1082.49H854.68V1078.78ZM894.464 1045.81H898.454V1096H894.464V1045.81ZM910.411 1069.12C911.345 1066.69 912.955 1064.66 915.241 1063.03C917.528 1061.35 920.468 1060.51 924.061 1060.51C927.281 1060.51 930.105 1061.26 932.531 1062.75C934.958 1064.24 936.825 1066.34 938.131 1069.05C939.485 1071.71 940.161 1074.86 940.161 1078.5C940.161 1082.14 939.485 1085.31 938.131 1088.02C936.778 1090.73 934.888 1092.83 932.461 1094.32C930.081 1095.77 927.281 1096.49 924.061 1096.49C920.655 1096.49 917.831 1095.7 915.591 1094.11C913.351 1092.52 911.741 1090.59 910.761 1088.3L910.481 1096H906.771V1045.6H910.761V1069.26L910.411 1069.12ZM935.891 1078.5C935.891 1074.11 934.748 1070.64 932.461 1068.07C930.175 1065.5 927.118 1064.22 923.291 1064.22C920.865 1064.22 918.695 1064.8 916.781 1065.97C914.868 1067.14 913.375 1068.79 912.301 1070.94C911.275 1073.04 910.761 1075.56 910.761 1078.5C910.761 1081.44 911.298 1083.98 912.371 1086.13C913.445 1088.23 914.915 1089.86 916.781 1091.03C918.695 1092.2 920.865 1092.78 923.291 1092.78C927.165 1092.78 930.221 1091.5 932.461 1088.93C934.748 1086.36 935.891 1082.89 935.891 1078.5ZM960.568 1096.49C957.301 1096.49 954.408 1095.72 951.888 1094.18C949.414 1092.59 947.478 1090.42 946.078 1087.67C944.678 1084.92 943.978 1081.74 943.978 1078.15C943.978 1074.74 944.678 1071.71 946.078 1069.05C947.524 1066.39 949.484 1064.31 951.958 1062.82C954.431 1061.28 957.254 1060.51 960.428 1060.51C963.554 1060.51 966.331 1061.21 968.758 1062.61C971.231 1063.96 973.144 1065.85 974.498 1068.28C975.898 1070.66 976.574 1073.39 976.528 1076.47C976.528 1076.94 976.504 1077.45 976.458 1078.01C976.458 1078.52 976.434 1079.08 976.388 1079.69H948.318C948.364 1082.26 948.924 1084.52 949.998 1086.48C951.071 1088.44 952.494 1089.98 954.268 1091.1C956.088 1092.17 958.141 1092.71 960.428 1092.71C963.321 1092.71 965.794 1092.13 967.848 1090.96C969.948 1089.75 971.464 1088.04 972.398 1085.85L975.828 1087.25C974.521 1090.24 972.538 1092.52 969.878 1094.11C967.218 1095.7 964.114 1096.49 960.568 1096.49ZM972.188 1076.19C972.234 1073.86 971.768 1071.8 970.788 1070.03C969.808 1068.26 968.408 1066.86 966.588 1065.83C964.814 1064.8 962.714 1064.29 960.288 1064.29C958.141 1064.29 956.204 1064.8 954.478 1065.83C952.751 1066.86 951.328 1068.28 950.208 1070.1C949.134 1071.87 948.504 1073.9 948.318 1076.19H972.188ZM982.656 1061H986.366L986.576 1067.23C987.369 1065.78 988.443 1064.52 989.796 1063.45C991.149 1062.38 992.689 1061.61 994.416 1061.14C996.143 1060.67 998.033 1060.63 1000.09 1061V1064.99C998.079 1064.57 996.259 1064.59 994.626 1065.06C992.993 1065.48 991.569 1066.25 990.356 1067.37C989.189 1068.49 988.279 1069.89 987.626 1071.57C986.973 1073.25 986.646 1075.16 986.646 1077.31V1096H982.656V1061ZM1007.05 1061V1051.2H1011.04V1061H1020.84V1064.71H1011.04V1085.36C1011.04 1087.41 1011.51 1089 1012.44 1090.12C1013.42 1091.24 1014.66 1091.96 1016.15 1092.29C1017.64 1092.57 1019.21 1092.57 1020.84 1092.29V1095.72C1019.16 1096.14 1017.48 1096.26 1015.8 1096.07C1014.17 1095.88 1012.67 1095.37 1011.32 1094.53C1010.01 1093.64 1008.96 1092.45 1008.17 1090.96C1007.42 1089.47 1007.05 1087.6 1007.05 1085.36V1064.71H1001.59V1061H1007.05ZM1044.99 1084.24C1045.31 1085.55 1045.94 1086.85 1046.88 1088.16C1047.81 1089.47 1049.12 1090.56 1050.8 1091.45C1052.52 1092.29 1054.76 1092.71 1057.52 1092.71C1061.39 1092.71 1064.26 1091.82 1066.13 1090.05C1067.99 1088.28 1068.93 1086.08 1068.93 1083.47C1068.93 1081.46 1068.39 1079.81 1067.32 1078.5C1066.29 1077.19 1064.87 1076.12 1063.05 1075.28C1061.27 1074.44 1059.27 1073.69 1057.03 1073.04C1055.11 1072.53 1053.25 1071.97 1051.43 1071.36C1049.65 1070.71 1048.04 1069.91 1046.6 1068.98C1045.15 1068.05 1044.01 1066.86 1043.17 1065.41C1042.33 1063.92 1041.91 1062.07 1041.91 1059.88C1041.91 1057.17 1042.54 1054.84 1043.8 1052.88C1045.06 1050.87 1046.83 1049.31 1049.12 1048.19C1051.45 1047.07 1054.18 1046.51 1057.31 1046.51C1060.06 1046.51 1062.44 1046.93 1064.45 1047.77C1066.45 1048.56 1068.11 1049.68 1069.42 1051.13C1070.72 1052.53 1071.66 1054.09 1072.22 1055.82L1068.51 1057.22C1068.13 1056.15 1067.46 1055.07 1066.48 1054C1065.54 1052.88 1064.28 1051.97 1062.7 1051.27C1061.16 1050.52 1059.31 1050.15 1057.17 1050.15C1055.16 1050.15 1053.32 1050.52 1051.64 1051.27C1049.96 1051.97 1048.6 1053.02 1047.58 1054.42C1046.6 1055.77 1046.11 1057.41 1046.11 1059.32C1046.11 1061.37 1046.67 1063.01 1047.79 1064.22C1048.91 1065.39 1050.38 1066.34 1052.2 1067.09C1054.06 1067.79 1056.12 1068.47 1058.36 1069.12C1060.27 1069.73 1062.11 1070.38 1063.89 1071.08C1065.71 1071.78 1067.29 1072.64 1068.65 1073.67C1070.05 1074.7 1071.14 1075.98 1071.94 1077.52C1072.78 1079.01 1073.2 1080.86 1073.2 1083.05C1073.2 1085.43 1072.64 1087.65 1071.52 1089.7C1070.44 1091.75 1068.76 1093.41 1066.48 1094.67C1064.19 1095.88 1061.23 1096.49 1057.59 1096.49C1054.46 1096.49 1051.75 1096.02 1049.47 1095.09C1047.23 1094.11 1045.41 1092.83 1044.01 1091.24C1042.61 1089.61 1041.65 1087.79 1041.14 1085.78L1044.99 1084.24ZM1102.28 1096L1102 1088.58C1101.02 1091.1 1099.48 1093.06 1097.38 1094.46C1095.32 1095.81 1092.71 1096.49 1089.54 1096.49C1087.02 1096.49 1084.87 1096.12 1083.1 1095.37C1081.32 1094.58 1079.95 1093.46 1078.97 1092.01C1078.03 1090.56 1077.57 1088.84 1077.57 1086.83C1077.57 1083.89 1078.66 1081.51 1080.86 1079.69C1083.05 1077.82 1086.32 1076.68 1090.66 1076.26L1102 1075V1072.06C1102 1069.63 1101.18 1067.74 1099.55 1066.39C1097.96 1064.99 1095.74 1064.29 1092.9 1064.29C1090.19 1064.29 1087.93 1064.92 1086.11 1066.18C1084.33 1067.44 1083.14 1069.24 1082.54 1071.57L1078.9 1070.31C1079.78 1067.18 1081.44 1064.78 1083.87 1063.1C1086.29 1061.37 1089.33 1060.51 1092.97 1060.51C1097.07 1060.51 1100.27 1061.54 1102.56 1063.59C1104.84 1065.64 1105.99 1068.47 1105.99 1072.06V1096H1102.28ZM1102 1078.43L1090.59 1079.76C1087.6 1080.09 1085.38 1080.83 1083.94 1082C1082.54 1083.12 1081.84 1084.66 1081.84 1086.62C1081.84 1088.58 1082.51 1090.12 1083.87 1091.24C1085.27 1092.36 1087.25 1092.92 1089.82 1092.92C1092.52 1092.92 1094.76 1092.38 1096.54 1091.31C1098.36 1090.19 1099.71 1088.67 1100.6 1086.76C1101.53 1084.8 1102 1082.61 1102 1080.18V1078.43ZM1113.85 1061H1117.56L1117.77 1067.37C1118.75 1065.22 1120.2 1063.54 1122.11 1062.33C1124.07 1061.12 1126.45 1060.51 1129.25 1060.51C1131.86 1060.51 1134.17 1061.09 1136.18 1062.26C1138.23 1063.38 1139.82 1065.08 1140.94 1067.37C1142.11 1069.61 1142.69 1072.48 1142.69 1075.98V1096H1138.7V1076.4C1138.7 1072.43 1137.81 1069.4 1136.04 1067.3C1134.27 1065.2 1131.79 1064.15 1128.62 1064.15C1125.26 1064.15 1122.62 1065.27 1120.71 1067.51C1118.8 1069.75 1117.84 1073.09 1117.84 1077.52V1096H1113.85V1061ZM1152.03 1085.78C1152.36 1087.32 1152.9 1088.6 1153.64 1089.63C1154.44 1090.66 1155.49 1091.43 1156.79 1091.94C1158.1 1092.45 1159.66 1092.71 1161.48 1092.71C1164.38 1092.71 1166.55 1092.15 1167.99 1091.03C1169.49 1089.86 1170.23 1088.42 1170.23 1086.69C1170.23 1085.24 1169.79 1084.1 1168.9 1083.26C1168.06 1082.42 1166.94 1081.74 1165.54 1081.23C1164.14 1080.72 1162.63 1080.27 1160.99 1079.9C1159.87 1079.62 1158.61 1079.29 1157.21 1078.92C1155.81 1078.55 1154.46 1078.03 1153.15 1077.38C1151.89 1076.68 1150.84 1075.79 1150 1074.72C1149.21 1073.6 1148.81 1072.13 1148.81 1070.31C1148.81 1068.35 1149.35 1066.65 1150.42 1065.2C1151.5 1063.71 1152.97 1062.56 1154.83 1061.77C1156.75 1060.93 1158.92 1060.51 1161.34 1060.51C1164.24 1060.51 1166.8 1061.14 1169.04 1062.4C1171.28 1063.66 1172.82 1065.67 1173.66 1068.42L1169.95 1069.68C1169.53 1068.19 1168.83 1067.07 1167.85 1066.32C1166.92 1065.53 1165.87 1064.99 1164.7 1064.71C1163.54 1064.43 1162.39 1064.29 1161.27 1064.29C1158.8 1064.29 1156.82 1064.8 1155.32 1065.83C1153.83 1066.81 1153.08 1068.23 1153.08 1070.1C1153.08 1071.17 1153.34 1072.06 1153.85 1072.76C1154.37 1073.46 1155.04 1074.02 1155.88 1074.44C1156.77 1074.86 1157.77 1075.21 1158.89 1075.49C1160.01 1075.77 1161.18 1076.05 1162.39 1076.33C1163.75 1076.66 1165.12 1077.05 1166.52 1077.52C1167.92 1077.99 1169.23 1078.59 1170.44 1079.34C1171.66 1080.09 1172.64 1081.04 1173.38 1082.21C1174.13 1083.38 1174.5 1084.85 1174.5 1086.62C1174.5 1088.63 1173.94 1090.38 1172.82 1091.87C1171.75 1093.36 1170.23 1094.51 1168.27 1095.3C1166.36 1096.09 1164.1 1096.49 1161.48 1096.49C1157.94 1096.49 1155.02 1095.72 1152.73 1094.18C1150.49 1092.59 1149 1090.21 1148.25 1087.04L1152.03 1085.78Z" fill="white"/>
<defs>
<filter id="filter0_d_33_27" x="177" y="225" width="68" height="107" filterUnits="userSpaceOnUse" color-interpolation-filters="sRGB">
<feFlood flood-opacity="0" result="BackgroundImageFix"/>
<feColorMatrix in="SourceAlpha" type="matrix" values="0 0 0 0 0 0 0 0 0 0 0 0 0 0 0 0 0 0 127 0" result="hardAlpha"/>
<feOffset/>
<feGaussianBlur stdDeviation="1.5"/>
<feComposite in2="hardAlpha" operator="out"/>
<feColorMatrix type="matrix" values="0 0 0 0 0 0 0 0 0 0 0 0 0 0 0 0 0 0 0.25 0"/>
<feBlend mode="normal" in2="BackgroundImageFix" result="effect1_dropShadow_33_27"/>
<feBlend mode="normal" in="SourceGraphic" in2="effect1_dropShadow_33_27" result="shape"/>
</filter>
<filter id="filter1_d_33_27" x="218" y="748" width="222" height="355" filterUnits="userSpaceOnUse" color-interpolation-filters="sRGB">
<feFlood flood-opacity="0" result="BackgroundImageFix"/>
<feColorMatrix in="SourceAlpha" type="matrix" values="0 0 0 0 0 0 0 0 0 0 0 0 0 0 0 0 0 0 127 0" result="hardAlpha"/>
<feOffset/>
<feGaussianBlur stdDeviation="1.5"/>
<feComposite in2="hardAlpha" operator="out"/>
<feColorMatrix type="matrix" values="0 0 0 0 0 0 0 0 0 0 0 0 0 0 0 0 0 0 0.25 0"/>
<feBlend mode="normal" in2="BackgroundImageFix" result="effect1_dropShadow_33_27"/>
<feBlend mode="normal" in="SourceGraphic" in2="effect1_dropShadow_33_27" result="shape"/>
</filter>
<clipPath id="clip0_33_27">
<rect x="547" y="60" width="840" height="438" rx="12" fill="white"/>
</clipPath>
</defs>
</svg>
